%TF.GenerationSoftware,KiCad,Pcbnew,(5.1.12)-1*%
%TF.CreationDate,2022-08-12T17:27:40+02:00*%
%TF.ProjectId,upitchuS2,75706974-6368-4755-9332-2e6b69636164,1.1*%
%TF.SameCoordinates,Original*%
%TF.FileFunction,Legend,Top*%
%TF.FilePolarity,Positive*%
%FSLAX46Y46*%
G04 Gerber Fmt 4.6, Leading zero omitted, Abs format (unit mm)*
G04 Created by KiCad (PCBNEW (5.1.12)-1) date 2022-08-12 17:27:40*
%MOMM*%
%LPD*%
G01*
G04 APERTURE LIST*
%ADD10C,0.300000*%
%ADD11C,0.100000*%
%ADD12C,0.120000*%
%ADD13C,0.150000*%
G04 APERTURE END LIST*
D10*
X126385714Y-123742857D02*
X126614285Y-123742857D01*
X126728571Y-123800000D01*
X126842857Y-123914285D01*
X126900000Y-124142857D01*
X126900000Y-124542857D01*
X126842857Y-124771428D01*
X126728571Y-124885714D01*
X126614285Y-124942857D01*
X126385714Y-124942857D01*
X126271428Y-124885714D01*
X126157142Y-124771428D01*
X126100000Y-124542857D01*
X126100000Y-124142857D01*
X126157142Y-123914285D01*
X126271428Y-123800000D01*
X126385714Y-123742857D01*
X127414285Y-124942857D02*
X127414285Y-123742857D01*
X128100000Y-124942857D02*
X127585714Y-124257142D01*
X128100000Y-123742857D02*
X127414285Y-124428571D01*
X127471428Y-115828571D02*
X127414285Y-115885714D01*
X127242857Y-115942857D01*
X127128571Y-115942857D01*
X126957142Y-115885714D01*
X126842857Y-115771428D01*
X126785714Y-115657142D01*
X126728571Y-115428571D01*
X126728571Y-115257142D01*
X126785714Y-115028571D01*
X126842857Y-114914285D01*
X126957142Y-114800000D01*
X127128571Y-114742857D01*
X127242857Y-114742857D01*
X127414285Y-114800000D01*
X127471428Y-114857142D01*
X127185714Y-106314285D02*
X127357142Y-106371428D01*
X127414285Y-106428571D01*
X127471428Y-106542857D01*
X127471428Y-106714285D01*
X127414285Y-106828571D01*
X127357142Y-106885714D01*
X127242857Y-106942857D01*
X126785714Y-106942857D01*
X126785714Y-105742857D01*
X127185714Y-105742857D01*
X127300000Y-105800000D01*
X127357142Y-105857142D01*
X127414285Y-105971428D01*
X127414285Y-106085714D01*
X127357142Y-106200000D01*
X127300000Y-106257142D01*
X127185714Y-106314285D01*
X126785714Y-106314285D01*
X126814285Y-97600000D02*
X127385714Y-97600000D01*
X126700000Y-97942857D02*
X127100000Y-96742857D01*
X127500000Y-97942857D01*
D11*
X93804761Y-135459523D02*
X93757142Y-135378571D01*
X93661904Y-135297619D01*
X93566666Y-135297619D01*
X93471428Y-135378571D01*
X93423809Y-135459523D01*
X93376190Y-135621428D01*
X93376190Y-135783333D01*
X93423809Y-135945238D01*
X93471428Y-136026190D01*
X93566666Y-136107142D01*
X93661904Y-136107142D01*
X93757142Y-136026190D01*
X93804761Y-135945238D01*
X93804761Y-135297619D02*
X93804761Y-135945238D01*
X93852380Y-136026190D01*
X93900000Y-136026190D01*
X93995238Y-135945238D01*
X94042857Y-135783333D01*
X94042857Y-135378571D01*
X93947619Y-135135714D01*
X93804761Y-134973809D01*
X93614285Y-134892857D01*
X93423809Y-134973809D01*
X93280952Y-135135714D01*
X93185714Y-135378571D01*
X93138095Y-135702380D01*
X93185714Y-136026190D01*
X93280952Y-136269047D01*
X93423809Y-136430952D01*
X93614285Y-136511904D01*
X93804761Y-136430952D01*
X93947619Y-136269047D01*
X94423809Y-136188095D02*
X94519047Y-136269047D01*
X94709523Y-136269047D01*
X94804761Y-136188095D01*
X94852380Y-136026190D01*
X94852380Y-135945238D01*
X94804761Y-135783333D01*
X94709523Y-135702380D01*
X94566666Y-135702380D01*
X94471428Y-135621428D01*
X94423809Y-135459523D01*
X94423809Y-135378571D01*
X94471428Y-135216666D01*
X94566666Y-135135714D01*
X94709523Y-135135714D01*
X94804761Y-135216666D01*
X95709523Y-135135714D02*
X95709523Y-136269047D01*
X95280952Y-135135714D02*
X95280952Y-136026190D01*
X95328571Y-136188095D01*
X95423809Y-136269047D01*
X95566666Y-136269047D01*
X95661904Y-136188095D01*
X95709523Y-136107142D01*
X96328571Y-136269047D02*
X96233333Y-136188095D01*
X96185714Y-136026190D01*
X96185714Y-134569047D01*
X96566666Y-135135714D02*
X96947619Y-135135714D01*
X96709523Y-136269047D02*
X96709523Y-134811904D01*
X96757142Y-134650000D01*
X96852380Y-134569047D01*
X96947619Y-134569047D01*
X97709523Y-135135714D02*
X97709523Y-136269047D01*
X97280952Y-135135714D02*
X97280952Y-136026190D01*
X97328571Y-136188095D01*
X97423809Y-136269047D01*
X97566666Y-136269047D01*
X97661904Y-136188095D01*
X97709523Y-136107142D01*
X98185714Y-136269047D02*
X98185714Y-135135714D01*
X98185714Y-135459523D02*
X98233333Y-135297619D01*
X98280952Y-135216666D01*
X98376190Y-135135714D01*
X98471428Y-135135714D01*
X98947619Y-136269047D02*
X98852380Y-136188095D01*
X98804761Y-136107142D01*
X98757142Y-135945238D01*
X98757142Y-135459523D01*
X98804761Y-135297619D01*
X98852380Y-135216666D01*
X98947619Y-135135714D01*
X99090476Y-135135714D01*
X99185714Y-135216666D01*
X99233333Y-135297619D01*
X99280952Y-135459523D01*
X99280952Y-135945238D01*
X99233333Y-136107142D01*
X99185714Y-136188095D01*
X99090476Y-136269047D01*
X98947619Y-136269047D01*
X99709523Y-136269047D02*
X99709523Y-135135714D01*
X99709523Y-134569047D02*
X99661904Y-134650000D01*
X99709523Y-134730952D01*
X99757142Y-134650000D01*
X99709523Y-134569047D01*
X99709523Y-134730952D01*
X100614285Y-136269047D02*
X100614285Y-134569047D01*
X100614285Y-136188095D02*
X100519047Y-136269047D01*
X100328571Y-136269047D01*
X100233333Y-136188095D01*
X100185714Y-136107142D01*
X100138095Y-135945238D01*
X100138095Y-135459523D01*
X100185714Y-135297619D01*
X100233333Y-135216666D01*
X100328571Y-135135714D01*
X100519047Y-135135714D01*
X100614285Y-135216666D01*
D10*
X104342857Y-54459523D02*
X103771428Y-54459523D01*
X103771428Y-52559523D01*
X104742857Y-54459523D02*
X104742857Y-52559523D01*
X105428571Y-54459523D01*
X105428571Y-52559523D01*
X106742857Y-52559523D02*
X107428571Y-52559523D01*
X107085714Y-54459523D02*
X107085714Y-52559523D01*
X107828571Y-54459523D02*
X107828571Y-53192857D01*
X107828571Y-52559523D02*
X107771428Y-52650000D01*
X107828571Y-52740476D01*
X107885714Y-52650000D01*
X107828571Y-52559523D01*
X107828571Y-52740476D01*
X108400000Y-53192857D02*
X108400000Y-54459523D01*
X108400000Y-53373809D02*
X108457142Y-53283333D01*
X108571428Y-53192857D01*
X108742857Y-53192857D01*
X108857142Y-53283333D01*
X108914285Y-53464285D01*
X108914285Y-54459523D01*
X109371428Y-53192857D02*
X109657142Y-54459523D01*
X109942857Y-53192857D02*
X109657142Y-54459523D01*
X109542857Y-54911904D01*
X109485714Y-55002380D01*
X109371428Y-55092857D01*
X110400000Y-54459523D02*
X110400000Y-52559523D01*
X110857142Y-52559523D01*
X110971428Y-52650000D01*
X111028571Y-52740476D01*
X111085714Y-52921428D01*
X111085714Y-53192857D01*
X111028571Y-53373809D01*
X110971428Y-53464285D01*
X110857142Y-53554761D01*
X110400000Y-53554761D01*
X111828571Y-52559523D02*
X112057142Y-52559523D01*
X112171428Y-52650000D01*
X112285714Y-52830952D01*
X112342857Y-53192857D01*
X112342857Y-53826190D01*
X112285714Y-54188095D01*
X112171428Y-54369047D01*
X112057142Y-54459523D01*
X111828571Y-54459523D01*
X111714285Y-54369047D01*
X111600000Y-54188095D01*
X111542857Y-53826190D01*
X111542857Y-53192857D01*
X111600000Y-52830952D01*
X111714285Y-52650000D01*
X111828571Y-52559523D01*
X112800000Y-54369047D02*
X112971428Y-54459523D01*
X113257142Y-54459523D01*
X113371428Y-54369047D01*
X113428571Y-54278571D01*
X113485714Y-54097619D01*
X113485714Y-53916666D01*
X113428571Y-53735714D01*
X113371428Y-53645238D01*
X113257142Y-53554761D01*
X113028571Y-53464285D01*
X112914285Y-53373809D01*
X112857142Y-53283333D01*
X112800000Y-53102380D01*
X112800000Y-52921428D01*
X112857142Y-52740476D01*
X112914285Y-52650000D01*
X113028571Y-52559523D01*
X113314285Y-52559523D01*
X113485714Y-52650000D01*
X114128571Y-124042857D02*
X114985714Y-124042857D01*
X114471428Y-123528571D02*
X114128571Y-125071428D01*
X114871428Y-124557142D02*
X114014285Y-124557142D01*
X114528571Y-125071428D02*
X114871428Y-123528571D01*
X101442857Y-123642857D02*
X101557142Y-123642857D01*
X101671428Y-123700000D01*
X101728571Y-123757142D01*
X101785714Y-123871428D01*
X101842857Y-124100000D01*
X101842857Y-124385714D01*
X101785714Y-124614285D01*
X101728571Y-124728571D01*
X101671428Y-124785714D01*
X101557142Y-124842857D01*
X101442857Y-124842857D01*
X101328571Y-124785714D01*
X101271428Y-124728571D01*
X101214285Y-124614285D01*
X101157142Y-124385714D01*
X101157142Y-124100000D01*
X101214285Y-123871428D01*
X101271428Y-123757142D01*
X101328571Y-123700000D01*
X101442857Y-123642857D01*
X88800000Y-124242857D02*
X88800000Y-124528571D01*
X88514285Y-124414285D02*
X88800000Y-124528571D01*
X89085714Y-124414285D01*
X88628571Y-124757142D02*
X88800000Y-124528571D01*
X88971428Y-124757142D01*
X114271428Y-115942857D02*
X114500000Y-115942857D01*
X114614285Y-115885714D01*
X114671428Y-115828571D01*
X114785714Y-115657142D01*
X114842857Y-115428571D01*
X114842857Y-114971428D01*
X114785714Y-114857142D01*
X114728571Y-114800000D01*
X114614285Y-114742857D01*
X114385714Y-114742857D01*
X114271428Y-114800000D01*
X114214285Y-114857142D01*
X114157142Y-114971428D01*
X114157142Y-115257142D01*
X114214285Y-115371428D01*
X114271428Y-115428571D01*
X114385714Y-115485714D01*
X114614285Y-115485714D01*
X114728571Y-115428571D01*
X114785714Y-115371428D01*
X114842857Y-115257142D01*
X101385714Y-115257142D02*
X101271428Y-115200000D01*
X101214285Y-115142857D01*
X101157142Y-115028571D01*
X101157142Y-114971428D01*
X101214285Y-114857142D01*
X101271428Y-114800000D01*
X101385714Y-114742857D01*
X101614285Y-114742857D01*
X101728571Y-114800000D01*
X101785714Y-114857142D01*
X101842857Y-114971428D01*
X101842857Y-115028571D01*
X101785714Y-115142857D01*
X101728571Y-115200000D01*
X101614285Y-115257142D01*
X101385714Y-115257142D01*
X101271428Y-115314285D01*
X101214285Y-115371428D01*
X101157142Y-115485714D01*
X101157142Y-115714285D01*
X101214285Y-115828571D01*
X101271428Y-115885714D01*
X101385714Y-115942857D01*
X101614285Y-115942857D01*
X101728571Y-115885714D01*
X101785714Y-115828571D01*
X101842857Y-115714285D01*
X101842857Y-115485714D01*
X101785714Y-115371428D01*
X101728571Y-115314285D01*
X101614285Y-115257142D01*
X88400000Y-114742857D02*
X89200000Y-114742857D01*
X88685714Y-115942857D01*
X114828571Y-105742857D02*
X114600000Y-105742857D01*
X114485714Y-105800000D01*
X114428571Y-105857142D01*
X114314285Y-106028571D01*
X114257142Y-106257142D01*
X114257142Y-106714285D01*
X114314285Y-106828571D01*
X114371428Y-106885714D01*
X114485714Y-106942857D01*
X114714285Y-106942857D01*
X114828571Y-106885714D01*
X114885714Y-106828571D01*
X114942857Y-106714285D01*
X114942857Y-106428571D01*
X114885714Y-106314285D01*
X114828571Y-106257142D01*
X114714285Y-106200000D01*
X114485714Y-106200000D01*
X114371428Y-106257142D01*
X114314285Y-106314285D01*
X114257142Y-106428571D01*
X101885714Y-105742857D02*
X101314285Y-105742857D01*
X101257142Y-106314285D01*
X101314285Y-106257142D01*
X101428571Y-106200000D01*
X101714285Y-106200000D01*
X101828571Y-106257142D01*
X101885714Y-106314285D01*
X101942857Y-106428571D01*
X101942857Y-106714285D01*
X101885714Y-106828571D01*
X101828571Y-106885714D01*
X101714285Y-106942857D01*
X101428571Y-106942857D01*
X101314285Y-106885714D01*
X101257142Y-106828571D01*
X89228571Y-106142857D02*
X89228571Y-106942857D01*
X88942857Y-105685714D02*
X88657142Y-106542857D01*
X89400000Y-106542857D01*
X114200000Y-96742857D02*
X114942857Y-96742857D01*
X114542857Y-97200000D01*
X114714285Y-97200000D01*
X114828571Y-97257142D01*
X114885714Y-97314285D01*
X114942857Y-97428571D01*
X114942857Y-97714285D01*
X114885714Y-97828571D01*
X114828571Y-97885714D01*
X114714285Y-97942857D01*
X114371428Y-97942857D01*
X114257142Y-97885714D01*
X114200000Y-97828571D01*
X101457142Y-96857142D02*
X101514285Y-96800000D01*
X101628571Y-96742857D01*
X101914285Y-96742857D01*
X102028571Y-96800000D01*
X102085714Y-96857142D01*
X102142857Y-96971428D01*
X102142857Y-97085714D01*
X102085714Y-97257142D01*
X101400000Y-97942857D01*
X102142857Y-97942857D01*
X89342857Y-97942857D02*
X88657142Y-97942857D01*
X89000000Y-97942857D02*
X89000000Y-96742857D01*
X88885714Y-96914285D01*
X88771428Y-97028571D01*
X88657142Y-97085714D01*
D11*
X106742857Y-136614285D02*
X106714285Y-136642857D01*
X106628571Y-136671428D01*
X106571428Y-136671428D01*
X106485714Y-136642857D01*
X106428571Y-136585714D01*
X106400000Y-136528571D01*
X106371428Y-136414285D01*
X106371428Y-136328571D01*
X106400000Y-136214285D01*
X106428571Y-136157142D01*
X106485714Y-136100000D01*
X106571428Y-136071428D01*
X106628571Y-136071428D01*
X106714285Y-136100000D01*
X106742857Y-136128571D01*
X107000000Y-136671428D02*
X107000000Y-136071428D01*
X107000000Y-136357142D02*
X107342857Y-136357142D01*
X107342857Y-136671428D02*
X107342857Y-136071428D01*
X107600000Y-136500000D02*
X107885714Y-136500000D01*
X107542857Y-136671428D02*
X107742857Y-136071428D01*
X107942857Y-136671428D01*
X108485714Y-136671428D02*
X108285714Y-136385714D01*
X108142857Y-136671428D02*
X108142857Y-136071428D01*
X108371428Y-136071428D01*
X108428571Y-136100000D01*
X108457142Y-136128571D01*
X108485714Y-136185714D01*
X108485714Y-136271428D01*
X108457142Y-136328571D01*
X108428571Y-136357142D01*
X108371428Y-136385714D01*
X108142857Y-136385714D01*
X109057142Y-136100000D02*
X109000000Y-136071428D01*
X108914285Y-136071428D01*
X108828571Y-136100000D01*
X108771428Y-136157142D01*
X108742857Y-136214285D01*
X108714285Y-136328571D01*
X108714285Y-136414285D01*
X108742857Y-136528571D01*
X108771428Y-136585714D01*
X108828571Y-136642857D01*
X108914285Y-136671428D01*
X108971428Y-136671428D01*
X109057142Y-136642857D01*
X109085714Y-136614285D01*
X109085714Y-136414285D01*
X108971428Y-136414285D01*
X109342857Y-136357142D02*
X109542857Y-136357142D01*
X109628571Y-136671428D02*
X109342857Y-136671428D01*
X109342857Y-136071428D01*
X109628571Y-136071428D01*
D12*
%TO.C,SW105*%
X123800000Y-100650000D02*
X123800000Y-103150000D01*
X130300000Y-100650000D02*
X130300000Y-103150000D01*
X123800000Y-98500000D02*
X123800000Y-99150000D01*
X130300000Y-98500000D02*
X123800000Y-98500000D01*
X130300000Y-99150000D02*
X130300000Y-98500000D01*
X123800000Y-105300000D02*
X123800000Y-104650000D01*
X130300000Y-105300000D02*
X123800000Y-105300000D01*
X130300000Y-104650000D02*
X130300000Y-105300000D01*
%TO.C,D1*%
X106727000Y-135735000D02*
X109012000Y-135735000D01*
X106727000Y-134265000D02*
X106727000Y-135735000D01*
X109012000Y-134265000D02*
X106727000Y-134265000D01*
%TO.C,D101*%
X117850000Y-51750000D02*
X117850000Y-52900000D01*
X125150000Y-51750000D02*
X117850000Y-51750000D01*
X125150000Y-57250000D02*
X117850000Y-57250000D01*
%TO.C,D102*%
X98150000Y-57250000D02*
X90850000Y-57250000D01*
X98150000Y-51750000D02*
X90850000Y-51750000D01*
X90850000Y-51750000D02*
X90850000Y-52900000D01*
D13*
%TO.C,U4*%
X102800000Y-84100000D02*
X102800000Y-71300000D01*
X84000000Y-76000000D02*
X84000000Y-58700000D01*
X84000000Y-58700000D02*
X131800000Y-58700000D01*
X84000000Y-76000000D02*
X84000000Y-93300000D01*
X84000000Y-93300000D02*
X131800000Y-93300000D01*
X131800000Y-93300000D02*
X131800000Y-58700000D01*
X102800000Y-71300000D02*
X92100000Y-71300000D01*
X92100000Y-71300000D02*
X92100000Y-67000000D01*
X92100000Y-67000000D02*
X84000000Y-67000000D01*
X102800000Y-84100000D02*
X97600000Y-84100000D01*
X97600000Y-84100000D02*
X92100000Y-84100000D01*
X92100000Y-84100000D02*
X92100000Y-90500000D01*
X92100000Y-90500000D02*
X84000000Y-90500000D01*
D12*
%TO.C,SW101*%
X85700000Y-118550000D02*
X85700000Y-121050000D01*
X92200000Y-118550000D02*
X92200000Y-121050000D01*
X85700000Y-116400000D02*
X85700000Y-117050000D01*
X92200000Y-116400000D02*
X85700000Y-116400000D01*
X92200000Y-117050000D02*
X92200000Y-116400000D01*
X85700000Y-123200000D02*
X85700000Y-122550000D01*
X92200000Y-123200000D02*
X85700000Y-123200000D01*
X92200000Y-122550000D02*
X92200000Y-123200000D01*
%TO.C,SW102*%
X85675000Y-127500000D02*
X85675000Y-130000000D01*
X92175000Y-127500000D02*
X92175000Y-130000000D01*
X85675000Y-125350000D02*
X85675000Y-126000000D01*
X92175000Y-125350000D02*
X85675000Y-125350000D01*
X92175000Y-126000000D02*
X92175000Y-125350000D01*
X85675000Y-132150000D02*
X85675000Y-131500000D01*
X92175000Y-132150000D02*
X85675000Y-132150000D01*
X92175000Y-131500000D02*
X92175000Y-132150000D01*
%TO.C,SW103*%
X92200000Y-113600000D02*
X92200000Y-114250000D01*
X92200000Y-114250000D02*
X85700000Y-114250000D01*
X85700000Y-114250000D02*
X85700000Y-113600000D01*
X92200000Y-108100000D02*
X92200000Y-107450000D01*
X92200000Y-107450000D02*
X85700000Y-107450000D01*
X85700000Y-107450000D02*
X85700000Y-108100000D01*
X92200000Y-109600000D02*
X92200000Y-112100000D01*
X85700000Y-109600000D02*
X85700000Y-112100000D01*
%TO.C,SW104*%
X85700000Y-100650000D02*
X85700000Y-103150000D01*
X92200000Y-100650000D02*
X92200000Y-103150000D01*
X85700000Y-98500000D02*
X85700000Y-99150000D01*
X92200000Y-98500000D02*
X85700000Y-98500000D01*
X92200000Y-99150000D02*
X92200000Y-98500000D01*
X85700000Y-105300000D02*
X85700000Y-104650000D01*
X92200000Y-105300000D02*
X85700000Y-105300000D01*
X92200000Y-104650000D02*
X92200000Y-105300000D01*
%TO.C,SW106*%
X104900000Y-122550000D02*
X104900000Y-123200000D01*
X104900000Y-123200000D02*
X98400000Y-123200000D01*
X98400000Y-123200000D02*
X98400000Y-122550000D01*
X104900000Y-117050000D02*
X104900000Y-116400000D01*
X104900000Y-116400000D02*
X98400000Y-116400000D01*
X98400000Y-116400000D02*
X98400000Y-117050000D01*
X104900000Y-118550000D02*
X104900000Y-121050000D01*
X98400000Y-118550000D02*
X98400000Y-121050000D01*
%TO.C,SW107*%
X104875000Y-131500000D02*
X104875000Y-132150000D01*
X104875000Y-132150000D02*
X98375000Y-132150000D01*
X98375000Y-132150000D02*
X98375000Y-131500000D01*
X104875000Y-126000000D02*
X104875000Y-125350000D01*
X104875000Y-125350000D02*
X98375000Y-125350000D01*
X98375000Y-125350000D02*
X98375000Y-126000000D01*
X104875000Y-127500000D02*
X104875000Y-130000000D01*
X98375000Y-127500000D02*
X98375000Y-130000000D01*
%TO.C,SW108*%
X98400000Y-109600000D02*
X98400000Y-112100000D01*
X104900000Y-109600000D02*
X104900000Y-112100000D01*
X98400000Y-107450000D02*
X98400000Y-108100000D01*
X104900000Y-107450000D02*
X98400000Y-107450000D01*
X104900000Y-108100000D02*
X104900000Y-107450000D01*
X98400000Y-114250000D02*
X98400000Y-113600000D01*
X104900000Y-114250000D02*
X98400000Y-114250000D01*
X104900000Y-113600000D02*
X104900000Y-114250000D01*
%TO.C,SW109*%
X104900000Y-104650000D02*
X104900000Y-105300000D01*
X104900000Y-105300000D02*
X98400000Y-105300000D01*
X98400000Y-105300000D02*
X98400000Y-104650000D01*
X104900000Y-99150000D02*
X104900000Y-98500000D01*
X104900000Y-98500000D02*
X98400000Y-98500000D01*
X98400000Y-98500000D02*
X98400000Y-99150000D01*
X104900000Y-100650000D02*
X104900000Y-103150000D01*
X98400000Y-100650000D02*
X98400000Y-103150000D01*
%TO.C,SW110*%
X130175000Y-113600000D02*
X130175000Y-114250000D01*
X130175000Y-114250000D02*
X123675000Y-114250000D01*
X123675000Y-114250000D02*
X123675000Y-113600000D01*
X130175000Y-108100000D02*
X130175000Y-107450000D01*
X130175000Y-107450000D02*
X123675000Y-107450000D01*
X123675000Y-107450000D02*
X123675000Y-108100000D01*
X130175000Y-109600000D02*
X130175000Y-112100000D01*
X123675000Y-109600000D02*
X123675000Y-112100000D01*
%TO.C,SW111*%
X117800000Y-122550000D02*
X117800000Y-123200000D01*
X117800000Y-123200000D02*
X111300000Y-123200000D01*
X111300000Y-123200000D02*
X111300000Y-122550000D01*
X117800000Y-117050000D02*
X117800000Y-116400000D01*
X117800000Y-116400000D02*
X111300000Y-116400000D01*
X111300000Y-116400000D02*
X111300000Y-117050000D01*
X117800000Y-118550000D02*
X117800000Y-121050000D01*
X111300000Y-118550000D02*
X111300000Y-121050000D01*
%TO.C,SW112*%
X117775000Y-131500000D02*
X117775000Y-132150000D01*
X117775000Y-132150000D02*
X111275000Y-132150000D01*
X111275000Y-132150000D02*
X111275000Y-131500000D01*
X117775000Y-126000000D02*
X117775000Y-125350000D01*
X117775000Y-125350000D02*
X111275000Y-125350000D01*
X111275000Y-125350000D02*
X111275000Y-126000000D01*
X117775000Y-127500000D02*
X117775000Y-130000000D01*
X111275000Y-127500000D02*
X111275000Y-130000000D01*
%TO.C,SW113*%
X117800000Y-113600000D02*
X117800000Y-114250000D01*
X117800000Y-114250000D02*
X111300000Y-114250000D01*
X111300000Y-114250000D02*
X111300000Y-113600000D01*
X117800000Y-108100000D02*
X117800000Y-107450000D01*
X117800000Y-107450000D02*
X111300000Y-107450000D01*
X111300000Y-107450000D02*
X111300000Y-108100000D01*
X117800000Y-109600000D02*
X117800000Y-112100000D01*
X111300000Y-109600000D02*
X111300000Y-112100000D01*
%TO.C,SW114*%
X111100000Y-100650000D02*
X111100000Y-103150000D01*
X117600000Y-100650000D02*
X117600000Y-103150000D01*
X111100000Y-98500000D02*
X111100000Y-99150000D01*
X117600000Y-98500000D02*
X111100000Y-98500000D01*
X117600000Y-99150000D02*
X117600000Y-98500000D01*
X111100000Y-105300000D02*
X111100000Y-104650000D01*
X117600000Y-105300000D02*
X111100000Y-105300000D01*
X117600000Y-104650000D02*
X117600000Y-105300000D01*
%TO.C,SW115*%
X123750000Y-118550000D02*
X123750000Y-121050000D01*
X130250000Y-118550000D02*
X130250000Y-121050000D01*
X123750000Y-116400000D02*
X123750000Y-117050000D01*
X130250000Y-116400000D02*
X123750000Y-116400000D01*
X130250000Y-117050000D02*
X130250000Y-116400000D01*
X123750000Y-123200000D02*
X123750000Y-122550000D01*
X130250000Y-123200000D02*
X123750000Y-123200000D01*
X130250000Y-122550000D02*
X130250000Y-123200000D01*
%TO.C,SW116*%
X130225000Y-131600000D02*
X130225000Y-132250000D01*
X130225000Y-132250000D02*
X123725000Y-132250000D01*
X123725000Y-132250000D02*
X123725000Y-131600000D01*
X130225000Y-126100000D02*
X130225000Y-125450000D01*
X130225000Y-125450000D02*
X123725000Y-125450000D01*
X123725000Y-125450000D02*
X123725000Y-126100000D01*
X130225000Y-127600000D02*
X130225000Y-130100000D01*
X123725000Y-127600000D02*
X123725000Y-130100000D01*
%TO.C,D1*%
D11*
X107756642Y-134071428D02*
X107756642Y-133471428D01*
X107899500Y-133471428D01*
X107985214Y-133500000D01*
X108042357Y-133557142D01*
X108070928Y-133614285D01*
X108099500Y-133728571D01*
X108099500Y-133814285D01*
X108070928Y-133928571D01*
X108042357Y-133985714D01*
X107985214Y-134042857D01*
X107899500Y-134071428D01*
X107756642Y-134071428D01*
X108670928Y-134071428D02*
X108328071Y-134071428D01*
X108499500Y-134071428D02*
X108499500Y-133471428D01*
X108442357Y-133557142D01*
X108385214Y-133614285D01*
X108328071Y-133642857D01*
%TO.C,D101*%
D13*
X125935714Y-56552380D02*
X125364285Y-56552380D01*
X125650000Y-56552380D02*
X125650000Y-55552380D01*
X125554761Y-55695238D01*
X125459523Y-55790476D01*
X125364285Y-55838095D01*
%TO.C,D102*%
X98935714Y-56552380D02*
X98364285Y-56552380D01*
X98650000Y-56552380D02*
X98650000Y-55552380D01*
X98554761Y-55695238D01*
X98459523Y-55790476D01*
X98364285Y-55838095D01*
%TO.C,U4*%
X92837980Y-77269904D02*
X93647504Y-77269904D01*
X93742742Y-77222285D01*
X93790361Y-77174666D01*
X93837980Y-77079428D01*
X93837980Y-76888952D01*
X93790361Y-76793714D01*
X93742742Y-76746095D01*
X93647504Y-76698476D01*
X92837980Y-76698476D01*
X93171314Y-75793714D02*
X93837980Y-75793714D01*
X92790361Y-76031809D02*
X93504647Y-76269904D01*
X93504647Y-75650857D01*
%TD*%
M02*
