%TF.GenerationSoftware,KiCad,Pcbnew,(5.1.12)-1*%
%TF.CreationDate,2022-08-12T17:27:40+02:00*%
%TF.ProjectId,upitchuS2,75706974-6368-4755-9332-2e6b69636164,1.1*%
%TF.SameCoordinates,Original*%
%TF.FileFunction,Legend,Bot*%
%TF.FilePolarity,Positive*%
%FSLAX46Y46*%
G04 Gerber Fmt 4.6, Leading zero omitted, Abs format (unit mm)*
G04 Created by KiCad (PCBNEW (5.1.12)-1) date 2022-08-12 17:27:40*
%MOMM*%
%LPD*%
G01*
G04 APERTURE LIST*
%ADD10C,0.100000*%
%ADD11C,0.120000*%
%ADD12C,0.127000*%
%ADD13C,0.150000*%
%ADD14C,0.200000*%
G04 APERTURE END LIST*
D10*
X85671428Y-59071428D02*
X85557142Y-59071428D01*
X85500000Y-59100000D01*
X85442857Y-59157142D01*
X85414285Y-59271428D01*
X85414285Y-59471428D01*
X85442857Y-59585714D01*
X85500000Y-59642857D01*
X85557142Y-59671428D01*
X85671428Y-59671428D01*
X85728571Y-59642857D01*
X85785714Y-59585714D01*
X85814285Y-59471428D01*
X85814285Y-59271428D01*
X85785714Y-59157142D01*
X85728571Y-59100000D01*
X85671428Y-59071428D01*
X84957142Y-59357142D02*
X85157142Y-59357142D01*
X85157142Y-59671428D02*
X85157142Y-59071428D01*
X84871428Y-59071428D01*
X84442857Y-59357142D02*
X84642857Y-59357142D01*
X84642857Y-59671428D02*
X84642857Y-59071428D01*
X84357142Y-59071428D01*
X85521428Y-69321428D02*
X85407142Y-69321428D01*
X85350000Y-69350000D01*
X85292857Y-69407142D01*
X85264285Y-69521428D01*
X85264285Y-69721428D01*
X85292857Y-69835714D01*
X85350000Y-69892857D01*
X85407142Y-69921428D01*
X85521428Y-69921428D01*
X85578571Y-69892857D01*
X85635714Y-69835714D01*
X85664285Y-69721428D01*
X85664285Y-69521428D01*
X85635714Y-69407142D01*
X85578571Y-69350000D01*
X85521428Y-69321428D01*
X85007142Y-69921428D02*
X85007142Y-69321428D01*
X84664285Y-69921428D01*
X84664285Y-69321428D01*
X111671428Y-91757142D02*
X111671428Y-92100000D01*
X112271428Y-91928571D02*
X111671428Y-91928571D01*
X111671428Y-92242857D02*
X112271428Y-92642857D01*
X111671428Y-92642857D02*
X112271428Y-92242857D01*
X111671428Y-92985714D02*
X111671428Y-93042857D01*
X111700000Y-93100000D01*
X111728571Y-93128571D01*
X111785714Y-93157142D01*
X111900000Y-93185714D01*
X112042857Y-93185714D01*
X112157142Y-93157142D01*
X112214285Y-93128571D01*
X112242857Y-93100000D01*
X112271428Y-93042857D01*
X112271428Y-92985714D01*
X112242857Y-92928571D01*
X112214285Y-92900000D01*
X112157142Y-92871428D01*
X112042857Y-92842857D01*
X111900000Y-92842857D01*
X111785714Y-92871428D01*
X111728571Y-92900000D01*
X111700000Y-92928571D01*
X111671428Y-92985714D01*
X114771428Y-92114285D02*
X114485714Y-91914285D01*
X114771428Y-91771428D02*
X114171428Y-91771428D01*
X114171428Y-92000000D01*
X114200000Y-92057142D01*
X114228571Y-92085714D01*
X114285714Y-92114285D01*
X114371428Y-92114285D01*
X114428571Y-92085714D01*
X114457142Y-92057142D01*
X114485714Y-92000000D01*
X114485714Y-91771428D01*
X114171428Y-92314285D02*
X114771428Y-92714285D01*
X114171428Y-92714285D02*
X114771428Y-92314285D01*
X114171428Y-93057142D02*
X114171428Y-93114285D01*
X114200000Y-93171428D01*
X114228571Y-93200000D01*
X114285714Y-93228571D01*
X114400000Y-93257142D01*
X114542857Y-93257142D01*
X114657142Y-93228571D01*
X114714285Y-93200000D01*
X114742857Y-93171428D01*
X114771428Y-93114285D01*
X114771428Y-93057142D01*
X114742857Y-93000000D01*
X114714285Y-92971428D01*
X114657142Y-92942857D01*
X114542857Y-92914285D01*
X114400000Y-92914285D01*
X114285714Y-92942857D01*
X114228571Y-92971428D01*
X114200000Y-93000000D01*
X114171428Y-93057142D01*
X117242857Y-91771428D02*
X117271428Y-91857142D01*
X117271428Y-92000000D01*
X117242857Y-92057142D01*
X117214285Y-92085714D01*
X117157142Y-92114285D01*
X117100000Y-92114285D01*
X117042857Y-92085714D01*
X117014285Y-92057142D01*
X116985714Y-92000000D01*
X116957142Y-91885714D01*
X116928571Y-91828571D01*
X116900000Y-91800000D01*
X116842857Y-91771428D01*
X116785714Y-91771428D01*
X116728571Y-91800000D01*
X116700000Y-91828571D01*
X116671428Y-91885714D01*
X116671428Y-92028571D01*
X116700000Y-92114285D01*
X117271428Y-92371428D02*
X116671428Y-92371428D01*
X116671428Y-92514285D01*
X116700000Y-92600000D01*
X116757142Y-92657142D01*
X116814285Y-92685714D01*
X116928571Y-92714285D01*
X117014285Y-92714285D01*
X117128571Y-92685714D01*
X117185714Y-92657142D01*
X117242857Y-92600000D01*
X117271428Y-92514285D01*
X117271428Y-92371428D01*
X117100000Y-92942857D02*
X117100000Y-93228571D01*
X117271428Y-92885714D02*
X116671428Y-93085714D01*
X117271428Y-93285714D01*
X119742857Y-91785714D02*
X119771428Y-91871428D01*
X119771428Y-92014285D01*
X119742857Y-92071428D01*
X119714285Y-92100000D01*
X119657142Y-92128571D01*
X119600000Y-92128571D01*
X119542857Y-92100000D01*
X119514285Y-92071428D01*
X119485714Y-92014285D01*
X119457142Y-91900000D01*
X119428571Y-91842857D01*
X119400000Y-91814285D01*
X119342857Y-91785714D01*
X119285714Y-91785714D01*
X119228571Y-91814285D01*
X119200000Y-91842857D01*
X119171428Y-91900000D01*
X119171428Y-92042857D01*
X119200000Y-92128571D01*
X119714285Y-92728571D02*
X119742857Y-92700000D01*
X119771428Y-92614285D01*
X119771428Y-92557142D01*
X119742857Y-92471428D01*
X119685714Y-92414285D01*
X119628571Y-92385714D01*
X119514285Y-92357142D01*
X119428571Y-92357142D01*
X119314285Y-92385714D01*
X119257142Y-92414285D01*
X119200000Y-92471428D01*
X119171428Y-92557142D01*
X119171428Y-92614285D01*
X119200000Y-92700000D01*
X119228571Y-92728571D01*
X119771428Y-93271428D02*
X119771428Y-92985714D01*
X119171428Y-92985714D01*
X121700000Y-92042857D02*
X121671428Y-91985714D01*
X121671428Y-91900000D01*
X121700000Y-91814285D01*
X121757142Y-91757142D01*
X121814285Y-91728571D01*
X121928571Y-91700000D01*
X122014285Y-91700000D01*
X122128571Y-91728571D01*
X122185714Y-91757142D01*
X122242857Y-91814285D01*
X122271428Y-91900000D01*
X122271428Y-91957142D01*
X122242857Y-92042857D01*
X122214285Y-92071428D01*
X122014285Y-92071428D01*
X122014285Y-91957142D01*
X122271428Y-92328571D02*
X121671428Y-92328571D01*
X122271428Y-92671428D01*
X121671428Y-92671428D01*
X122271428Y-92957142D02*
X121671428Y-92957142D01*
X121671428Y-93100000D01*
X121700000Y-93185714D01*
X121757142Y-93242857D01*
X121814285Y-93271428D01*
X121928571Y-93300000D01*
X122014285Y-93300000D01*
X122128571Y-93271428D01*
X122185714Y-93242857D01*
X122242857Y-93185714D01*
X122271428Y-93100000D01*
X122271428Y-92957142D01*
X124171428Y-91642857D02*
X124171428Y-92014285D01*
X124400000Y-91814285D01*
X124400000Y-91900000D01*
X124428571Y-91957142D01*
X124457142Y-91985714D01*
X124514285Y-92014285D01*
X124657142Y-92014285D01*
X124714285Y-91985714D01*
X124742857Y-91957142D01*
X124771428Y-91900000D01*
X124771428Y-91728571D01*
X124742857Y-91671428D01*
X124714285Y-91642857D01*
X124714285Y-92271428D02*
X124742857Y-92300000D01*
X124771428Y-92271428D01*
X124742857Y-92242857D01*
X124714285Y-92271428D01*
X124771428Y-92271428D01*
X124171428Y-92500000D02*
X124171428Y-92871428D01*
X124400000Y-92671428D01*
X124400000Y-92757142D01*
X124428571Y-92814285D01*
X124457142Y-92842857D01*
X124514285Y-92871428D01*
X124657142Y-92871428D01*
X124714285Y-92842857D01*
X124742857Y-92814285D01*
X124771428Y-92757142D01*
X124771428Y-92585714D01*
X124742857Y-92528571D01*
X124714285Y-92500000D01*
X124371428Y-93071428D02*
X124771428Y-93214285D01*
X124371428Y-93357142D01*
X126671428Y-91514285D02*
X127271428Y-91714285D01*
X126671428Y-91914285D01*
X126957142Y-92314285D02*
X126985714Y-92400000D01*
X127014285Y-92428571D01*
X127071428Y-92457142D01*
X127157142Y-92457142D01*
X127214285Y-92428571D01*
X127242857Y-92400000D01*
X127271428Y-92342857D01*
X127271428Y-92114285D01*
X126671428Y-92114285D01*
X126671428Y-92314285D01*
X126700000Y-92371428D01*
X126728571Y-92400000D01*
X126785714Y-92428571D01*
X126842857Y-92428571D01*
X126900000Y-92400000D01*
X126928571Y-92371428D01*
X126957142Y-92314285D01*
X126957142Y-92114285D01*
X127100000Y-92685714D02*
X127100000Y-92971428D01*
X127271428Y-92628571D02*
X126671428Y-92828571D01*
X127271428Y-93028571D01*
X126671428Y-93142857D02*
X126671428Y-93485714D01*
X127271428Y-93314285D02*
X126671428Y-93314285D01*
X129171428Y-89485714D02*
X129771428Y-89685714D01*
X129171428Y-89885714D01*
X129171428Y-90085714D02*
X129657142Y-90085714D01*
X129714285Y-90114285D01*
X129742857Y-90142857D01*
X129771428Y-90200000D01*
X129771428Y-90314285D01*
X129742857Y-90371428D01*
X129714285Y-90400000D01*
X129657142Y-90428571D01*
X129171428Y-90428571D01*
X129742857Y-90685714D02*
X129771428Y-90771428D01*
X129771428Y-90914285D01*
X129742857Y-90971428D01*
X129714285Y-91000000D01*
X129657142Y-91028571D01*
X129600000Y-91028571D01*
X129542857Y-91000000D01*
X129514285Y-90971428D01*
X129485714Y-90914285D01*
X129457142Y-90800000D01*
X129428571Y-90742857D01*
X129400000Y-90714285D01*
X129342857Y-90685714D01*
X129285714Y-90685714D01*
X129228571Y-90714285D01*
X129200000Y-90742857D01*
X129171428Y-90800000D01*
X129171428Y-90942857D01*
X129200000Y-91028571D01*
X129457142Y-91485714D02*
X129485714Y-91571428D01*
X129514285Y-91600000D01*
X129571428Y-91628571D01*
X129657142Y-91628571D01*
X129714285Y-91600000D01*
X129742857Y-91571428D01*
X129771428Y-91514285D01*
X129771428Y-91285714D01*
X129171428Y-91285714D01*
X129171428Y-91485714D01*
X129200000Y-91542857D01*
X129228571Y-91571428D01*
X129285714Y-91600000D01*
X129342857Y-91600000D01*
X129400000Y-91571428D01*
X129428571Y-91542857D01*
X129457142Y-91485714D01*
X129457142Y-91285714D01*
X129542857Y-91885714D02*
X129542857Y-92342857D01*
X129171428Y-92914285D02*
X129171428Y-92628571D01*
X129457142Y-92600000D01*
X129428571Y-92628571D01*
X129400000Y-92685714D01*
X129400000Y-92828571D01*
X129428571Y-92885714D01*
X129457142Y-92914285D01*
X129514285Y-92942857D01*
X129657142Y-92942857D01*
X129714285Y-92914285D01*
X129742857Y-92885714D01*
X129771428Y-92828571D01*
X129771428Y-92685714D01*
X129742857Y-92628571D01*
X129714285Y-92600000D01*
X129171428Y-93114285D02*
X129771428Y-93314285D01*
X129171428Y-93514285D01*
X100942857Y-69325000D02*
X101000000Y-69296428D01*
X101085714Y-69296428D01*
X101171428Y-69325000D01*
X101228571Y-69382142D01*
X101257142Y-69439285D01*
X101285714Y-69553571D01*
X101285714Y-69639285D01*
X101257142Y-69753571D01*
X101228571Y-69810714D01*
X101171428Y-69867857D01*
X101085714Y-69896428D01*
X101028571Y-69896428D01*
X100942857Y-69867857D01*
X100914285Y-69839285D01*
X100914285Y-69639285D01*
X101028571Y-69639285D01*
X89771428Y-67128571D02*
X89485714Y-66928571D01*
X89771428Y-66785714D02*
X89171428Y-66785714D01*
X89171428Y-67014285D01*
X89200000Y-67071428D01*
X89228571Y-67100000D01*
X89285714Y-67128571D01*
X89371428Y-67128571D01*
X89428571Y-67100000D01*
X89457142Y-67071428D01*
X89485714Y-67014285D01*
X89485714Y-66785714D01*
X89457142Y-67385714D02*
X89457142Y-67585714D01*
X89771428Y-67671428D02*
X89771428Y-67385714D01*
X89171428Y-67385714D01*
X89171428Y-67671428D01*
X89742857Y-67900000D02*
X89771428Y-67985714D01*
X89771428Y-68128571D01*
X89742857Y-68185714D01*
X89714285Y-68214285D01*
X89657142Y-68242857D01*
X89600000Y-68242857D01*
X89542857Y-68214285D01*
X89514285Y-68185714D01*
X89485714Y-68128571D01*
X89457142Y-68014285D01*
X89428571Y-67957142D01*
X89400000Y-67928571D01*
X89342857Y-67900000D01*
X89285714Y-67900000D01*
X89228571Y-67928571D01*
X89200000Y-67957142D01*
X89171428Y-68014285D01*
X89171428Y-68157142D01*
X89200000Y-68242857D01*
X89457142Y-68500000D02*
X89457142Y-68700000D01*
X89771428Y-68785714D02*
X89771428Y-68500000D01*
X89171428Y-68500000D01*
X89171428Y-68785714D01*
X89171428Y-68957142D02*
X89171428Y-69300000D01*
X89771428Y-69128571D02*
X89171428Y-69128571D01*
X89457142Y-60685714D02*
X89485714Y-60771428D01*
X89514285Y-60800000D01*
X89571428Y-60828571D01*
X89657142Y-60828571D01*
X89714285Y-60800000D01*
X89742857Y-60771428D01*
X89771428Y-60714285D01*
X89771428Y-60485714D01*
X89171428Y-60485714D01*
X89171428Y-60685714D01*
X89200000Y-60742857D01*
X89228571Y-60771428D01*
X89285714Y-60800000D01*
X89342857Y-60800000D01*
X89400000Y-60771428D01*
X89428571Y-60742857D01*
X89457142Y-60685714D01*
X89457142Y-60485714D01*
X89171428Y-61200000D02*
X89171428Y-61314285D01*
X89200000Y-61371428D01*
X89257142Y-61428571D01*
X89371428Y-61457142D01*
X89571428Y-61457142D01*
X89685714Y-61428571D01*
X89742857Y-61371428D01*
X89771428Y-61314285D01*
X89771428Y-61200000D01*
X89742857Y-61142857D01*
X89685714Y-61085714D01*
X89571428Y-61057142D01*
X89371428Y-61057142D01*
X89257142Y-61085714D01*
X89200000Y-61142857D01*
X89171428Y-61200000D01*
X89171428Y-61828571D02*
X89171428Y-61942857D01*
X89200000Y-62000000D01*
X89257142Y-62057142D01*
X89371428Y-62085714D01*
X89571428Y-62085714D01*
X89685714Y-62057142D01*
X89742857Y-62000000D01*
X89771428Y-61942857D01*
X89771428Y-61828571D01*
X89742857Y-61771428D01*
X89685714Y-61714285D01*
X89571428Y-61685714D01*
X89371428Y-61685714D01*
X89257142Y-61714285D01*
X89200000Y-61771428D01*
X89171428Y-61828571D01*
X89171428Y-62257142D02*
X89171428Y-62600000D01*
X89771428Y-62428571D02*
X89171428Y-62428571D01*
X129928571Y-83312857D02*
X129471428Y-83312857D01*
X129700000Y-83541428D02*
X129700000Y-83084285D01*
D11*
%TO.C,D3*%
X131283000Y-86630000D02*
X127383000Y-86630000D01*
X131283000Y-88630000D02*
X127383000Y-88630000D01*
X131283000Y-86630000D02*
X131283000Y-88630000D01*
%TO.C,D2*%
X98570000Y-90160000D02*
X100030000Y-90160000D01*
X98570000Y-87000000D02*
X100730000Y-87000000D01*
X98570000Y-87000000D02*
X98570000Y-87930000D01*
X98570000Y-90160000D02*
X98570000Y-89230000D01*
%TO.C,J4*%
X128320000Y-79645000D02*
X126920000Y-79645000D01*
X126220000Y-80345000D02*
X126220000Y-80945000D01*
X126920000Y-81645000D02*
X128320000Y-81645000D01*
X129020000Y-80945000D02*
X129020000Y-80345000D01*
X126920000Y-79645000D02*
G75*
G03*
X126220000Y-80345000I0J-700000D01*
G01*
X126220000Y-80945000D02*
G75*
G03*
X126920000Y-81645000I700000J0D01*
G01*
X128320000Y-81645000D02*
G75*
G03*
X129020000Y-80945000I0J700000D01*
G01*
X129020000Y-80345000D02*
G75*
G03*
X128320000Y-79645000I-700000J0D01*
G01*
D12*
%TO.C,SW2*%
G36*
X90500000Y-70065000D02*
G01*
X90500000Y-69165000D01*
X91400000Y-70065000D01*
X90500000Y-70065000D01*
G37*
X90500000Y-70065000D02*
X90500000Y-69165000D01*
X91400000Y-70065000D01*
X90500000Y-70065000D01*
G36*
X90500000Y-65400000D02*
G01*
X91400000Y-65400000D01*
X90500000Y-66300000D01*
X90500000Y-65400000D01*
G37*
X90500000Y-65400000D02*
X91400000Y-65400000D01*
X90500000Y-66300000D01*
X90500000Y-65400000D01*
G36*
X93400000Y-65400000D02*
G01*
X93400000Y-66300000D01*
X92500000Y-65400000D01*
X93400000Y-65400000D01*
G37*
X93400000Y-65400000D02*
X93400000Y-66300000D01*
X92500000Y-65400000D01*
X93400000Y-65400000D01*
G36*
X93400000Y-70065000D02*
G01*
X92500000Y-70065000D01*
X93400000Y-69165000D01*
X93400000Y-70065000D01*
G37*
X93400000Y-70065000D02*
X92500000Y-70065000D01*
X93400000Y-69165000D01*
X93400000Y-70065000D01*
X90500000Y-70065000D02*
X93400000Y-70065000D01*
X90500000Y-65400000D02*
X90500000Y-70065000D01*
X93400000Y-65400000D02*
X90500000Y-65400000D01*
X93400000Y-70065000D02*
X93400000Y-65400000D01*
X91100000Y-67400000D02*
X91100000Y-68065000D01*
X92900000Y-68065000D02*
X92900000Y-67400000D01*
X91100000Y-68065000D02*
G75*
G03*
X92900000Y-68065000I900000J0D01*
G01*
X92900000Y-67400000D02*
G75*
G03*
X91100000Y-67400000I-900000J0D01*
G01*
D11*
%TO.C,U1*%
X123500000Y-81830000D02*
X121700000Y-81830000D01*
X121700000Y-78610000D02*
X124150000Y-78610000D01*
%TO.C,Q1*%
X124460000Y-86690000D02*
X124460000Y-87620000D01*
X124460000Y-89850000D02*
X124460000Y-88920000D01*
X124460000Y-89850000D02*
X122300000Y-89850000D01*
X124460000Y-86690000D02*
X123000000Y-86690000D01*
D12*
%TO.C,SW1*%
X92900000Y-61714000D02*
X92900000Y-61049000D01*
X91100000Y-61049000D02*
X91100000Y-61714000D01*
X93400000Y-63714000D02*
X93400000Y-59049000D01*
X93400000Y-59049000D02*
X90500000Y-59049000D01*
X90500000Y-59049000D02*
X90500000Y-63714000D01*
X90500000Y-63714000D02*
X93400000Y-63714000D01*
G36*
X93400000Y-63714000D02*
G01*
X92500000Y-63714000D01*
X93400000Y-62814000D01*
X93400000Y-63714000D01*
G37*
X93400000Y-63714000D02*
X92500000Y-63714000D01*
X93400000Y-62814000D01*
X93400000Y-63714000D01*
G36*
X93400000Y-59049000D02*
G01*
X93400000Y-59949000D01*
X92500000Y-59049000D01*
X93400000Y-59049000D01*
G37*
X93400000Y-59049000D02*
X93400000Y-59949000D01*
X92500000Y-59049000D01*
X93400000Y-59049000D01*
G36*
X90500000Y-59049000D02*
G01*
X91400000Y-59049000D01*
X90500000Y-59949000D01*
X90500000Y-59049000D01*
G37*
X90500000Y-59049000D02*
X91400000Y-59049000D01*
X90500000Y-59949000D01*
X90500000Y-59049000D01*
G36*
X90500000Y-63714000D02*
G01*
X90500000Y-62814000D01*
X91400000Y-63714000D01*
X90500000Y-63714000D01*
G37*
X90500000Y-63714000D02*
X90500000Y-62814000D01*
X91400000Y-63714000D01*
X90500000Y-63714000D01*
X92900000Y-61049000D02*
G75*
G03*
X91100000Y-61049000I-900000J0D01*
G01*
X91100000Y-61714000D02*
G75*
G03*
X92900000Y-61714000I900000J0D01*
G01*
D13*
%TO.C,J101*%
X85150000Y-85900000D02*
X87450000Y-85900000D01*
X81550000Y-85900000D02*
X83500000Y-85900000D01*
X85150000Y-95100000D02*
X87450000Y-95100000D01*
X81550000Y-95100000D02*
X83500000Y-95100000D01*
X81550000Y-85900000D02*
X81550000Y-95100000D01*
D11*
%TO.C,U101*%
X86750000Y-78910000D02*
X92760000Y-78910000D01*
X89000000Y-72090000D02*
X92760000Y-72090000D01*
X92760000Y-78910000D02*
X92760000Y-77650000D01*
X92760000Y-72090000D02*
X92760000Y-73350000D01*
%TO.C,J102*%
X130610000Y-94170000D02*
X130610000Y-96830000D01*
X112770000Y-94170000D02*
X130610000Y-94170000D01*
X112770000Y-96830000D02*
X130610000Y-96830000D01*
X112770000Y-94170000D02*
X112770000Y-96830000D01*
X111500000Y-94170000D02*
X110170000Y-94170000D01*
X110170000Y-94170000D02*
X110170000Y-95500000D01*
%TO.C,J1*%
X122090000Y-105090000D02*
X122090000Y-100410000D01*
X128310000Y-99710000D02*
X128310000Y-100990000D01*
X129910000Y-99710000D02*
X128310000Y-99710000D01*
X129910000Y-98690000D02*
X129910000Y-99710000D01*
X125660000Y-98690000D02*
X129910000Y-98690000D01*
X128310000Y-104510000D02*
X131200000Y-104510000D01*
X128310000Y-105790000D02*
X128310000Y-104510000D01*
X129910000Y-105790000D02*
X128310000Y-105790000D01*
X129910000Y-106810000D02*
X129910000Y-105790000D01*
X125660000Y-106810000D02*
X129910000Y-106810000D01*
D14*
%TO.C,SW117*%
X86750000Y-68500000D02*
X86750000Y-60200000D01*
X83250000Y-60350000D02*
X86750000Y-60350000D01*
X83500000Y-68600000D02*
X86650000Y-68600000D01*
X78500000Y-64750000D02*
X78500000Y-65750000D01*
X78750000Y-66000000D02*
X78500000Y-65750000D01*
X86650000Y-60100000D02*
X86650000Y-68600000D01*
X83250000Y-60350000D02*
X83250000Y-68350000D01*
X83500000Y-68600000D02*
X83500000Y-60100000D01*
X78750000Y-64500000D02*
X83250000Y-64500000D01*
X86650000Y-60100000D02*
X83500000Y-60100000D01*
X78500000Y-64750000D02*
X78750000Y-64500000D01*
X78750000Y-66000000D02*
X83250000Y-66000000D01*
X86750000Y-68350000D02*
X83250000Y-68350000D01*
X88149999Y-61700000D02*
G75*
G03*
X88050000Y-61600001I-99999J0D01*
G01*
X88150000Y-64200000D02*
G75*
G03*
X88050000Y-64100000I-100000J0D01*
G01*
X88050000Y-62099999D02*
G75*
G03*
X88149999Y-62000000I0J99999D01*
G01*
X88050000Y-67099999D02*
G75*
G03*
X88149999Y-67000000I0J99999D01*
G01*
X86650000Y-68600001D02*
G75*
G03*
X86750001Y-68500000I0J100001D01*
G01*
X88150000Y-66700000D02*
G75*
G03*
X88050000Y-66600000I-100000J0D01*
G01*
X83500000Y-60100000D02*
G75*
G03*
X83250000Y-60350000I0J-250000D01*
G01*
X83250000Y-68350000D02*
G75*
G03*
X83500000Y-68600000I250000J0D01*
G01*
X86750000Y-60200000D02*
G75*
G03*
X86650000Y-60100000I-100000J0D01*
G01*
D11*
%TO.C,C1*%
X93482000Y-93879420D02*
X93482000Y-94160580D01*
X92462000Y-93879420D02*
X92462000Y-94160580D01*
%TO.C,C6*%
X124052420Y-85854000D02*
X124333580Y-85854000D01*
X124052420Y-84834000D02*
X124333580Y-84834000D01*
%TO.C,C8*%
X99070000Y-93926580D02*
X99070000Y-93645420D01*
X98050000Y-93926580D02*
X98050000Y-93645420D01*
%TO.C,C9*%
X121775420Y-82939000D02*
X122056580Y-82939000D01*
X121775420Y-83959000D02*
X122056580Y-83959000D01*
%TO.C,C101*%
X94640580Y-55010000D02*
X94359420Y-55010000D01*
X94640580Y-53990000D02*
X94359420Y-53990000D01*
%TO.C,C102*%
X121620580Y-53990000D02*
X121339420Y-53990000D01*
X121620580Y-55010000D02*
X121339420Y-55010000D01*
%TO.C,R1*%
X122508742Y-76058500D02*
X122983258Y-76058500D01*
X122508742Y-77103500D02*
X122983258Y-77103500D01*
%TO.C,R2*%
X101272742Y-93877500D02*
X101747258Y-93877500D01*
X101272742Y-94922500D02*
X101747258Y-94922500D01*
%TO.C,R3*%
X95932258Y-58913500D02*
X95457742Y-58913500D01*
X95932258Y-59958500D02*
X95457742Y-59958500D01*
%TO.C,R4*%
X107075500Y-86246258D02*
X107075500Y-85771742D01*
X108120500Y-86246258D02*
X108120500Y-85771742D01*
%TO.C,R5*%
X106596500Y-86246258D02*
X106596500Y-85771742D01*
X105551500Y-86246258D02*
X105551500Y-85771742D01*
%TO.C,R6*%
X123331500Y-72691258D02*
X123331500Y-72216742D01*
X122286500Y-72691258D02*
X122286500Y-72216742D01*
%TO.C,R9*%
X130951500Y-84501258D02*
X130951500Y-84026742D01*
X129906500Y-84501258D02*
X129906500Y-84026742D01*
%TO.C,R14*%
X125215500Y-69260742D02*
X125215500Y-69735258D01*
X126260500Y-69260742D02*
X126260500Y-69735258D01*
%TO.C,R16*%
X127882500Y-75862742D02*
X127882500Y-76337258D01*
X128927500Y-75862742D02*
X128927500Y-76337258D01*
%TO.C,R17*%
X126739500Y-62748258D02*
X126739500Y-62273742D01*
X127784500Y-62748258D02*
X127784500Y-62273742D01*
%TO.C,R19*%
X120254500Y-88507258D02*
X120254500Y-88032742D01*
X121299500Y-88507258D02*
X121299500Y-88032742D01*
%TO.C,R101*%
X88862742Y-120422500D02*
X89337258Y-120422500D01*
X88862742Y-119377500D02*
X89337258Y-119377500D01*
%TO.C,R102*%
X89227258Y-126350500D02*
X88752742Y-126350500D01*
X89227258Y-127395500D02*
X88752742Y-127395500D01*
%TO.C,R103*%
X88752742Y-112022500D02*
X89227258Y-112022500D01*
X88752742Y-110977500D02*
X89227258Y-110977500D01*
%TO.C,R104*%
X120252742Y-111393500D02*
X120727258Y-111393500D01*
X120252742Y-110348500D02*
X120727258Y-110348500D01*
%TO.C,R105*%
X89337258Y-118632500D02*
X88862742Y-118632500D01*
X89337258Y-117587500D02*
X88862742Y-117587500D01*
%TO.C,R106*%
X88762742Y-127977500D02*
X89237258Y-127977500D01*
X88762742Y-129022500D02*
X89237258Y-129022500D01*
%TO.C,R107*%
X89227258Y-110377500D02*
X88752742Y-110377500D01*
X89227258Y-109332500D02*
X88752742Y-109332500D01*
%TO.C,R108*%
X120747258Y-109784500D02*
X120272742Y-109784500D01*
X120747258Y-108739500D02*
X120272742Y-108739500D01*
%TO.C,R109*%
X101747258Y-117714500D02*
X101272742Y-117714500D01*
X101747258Y-118759500D02*
X101272742Y-118759500D01*
%TO.C,R110*%
X101727258Y-127903500D02*
X101252742Y-127903500D01*
X101727258Y-126858500D02*
X101252742Y-126858500D01*
%TO.C,R111*%
X101272742Y-111622500D02*
X101747258Y-111622500D01*
X101272742Y-110577500D02*
X101747258Y-110577500D01*
%TO.C,R112*%
X101217742Y-101577500D02*
X101692258Y-101577500D01*
X101217742Y-102622500D02*
X101692258Y-102622500D01*
%TO.C,R113*%
X127027258Y-109577500D02*
X126552742Y-109577500D01*
X127027258Y-110622500D02*
X126552742Y-110622500D01*
%TO.C,R114*%
X101252742Y-119377500D02*
X101727258Y-119377500D01*
X101252742Y-120422500D02*
X101727258Y-120422500D01*
%TO.C,R115*%
X101252742Y-128477500D02*
X101727258Y-128477500D01*
X101252742Y-129522500D02*
X101727258Y-129522500D01*
%TO.C,R116*%
X101727258Y-109869500D02*
X101252742Y-109869500D01*
X101727258Y-108824500D02*
X101252742Y-108824500D01*
%TO.C,R117*%
X101737258Y-99934500D02*
X101262742Y-99934500D01*
X101737258Y-100979500D02*
X101262742Y-100979500D01*
%TO.C,R118*%
X126552742Y-111364500D02*
X127027258Y-111364500D01*
X126552742Y-112409500D02*
X127027258Y-112409500D01*
%TO.C,R119*%
X114262742Y-120522500D02*
X114737258Y-120522500D01*
X114262742Y-119477500D02*
X114737258Y-119477500D01*
%TO.C,R120*%
X114252742Y-129022500D02*
X114727258Y-129022500D01*
X114252742Y-127977500D02*
X114727258Y-127977500D01*
%TO.C,R121*%
X114737258Y-109477500D02*
X114262742Y-109477500D01*
X114737258Y-110522500D02*
X114262742Y-110522500D01*
%TO.C,R122*%
X106609258Y-99934500D02*
X106134742Y-99934500D01*
X106609258Y-100979500D02*
X106134742Y-100979500D01*
%TO.C,R123*%
X126762742Y-120522500D02*
X127237258Y-120522500D01*
X126762742Y-119477500D02*
X127237258Y-119477500D01*
%TO.C,R124*%
X114737258Y-118759500D02*
X114262742Y-118759500D01*
X114737258Y-117714500D02*
X114262742Y-117714500D01*
%TO.C,R125*%
X114737258Y-127395500D02*
X114262742Y-127395500D01*
X114737258Y-126350500D02*
X114262742Y-126350500D01*
%TO.C,R126*%
X114252742Y-110977500D02*
X114727258Y-110977500D01*
X114252742Y-112022500D02*
X114727258Y-112022500D01*
%TO.C,R127*%
X106124742Y-101596500D02*
X106599258Y-101596500D01*
X106124742Y-102641500D02*
X106599258Y-102641500D01*
%TO.C,R128*%
X127237258Y-118886500D02*
X126762742Y-118886500D01*
X127237258Y-117841500D02*
X126762742Y-117841500D01*
%TO.C,R129*%
X93552742Y-85837500D02*
X94027258Y-85837500D01*
X93552742Y-86882500D02*
X94027258Y-86882500D01*
%TO.C,R130*%
X94027258Y-90155500D02*
X93552742Y-90155500D01*
X94027258Y-91200500D02*
X93552742Y-91200500D01*
%TO.C,R131*%
X126752742Y-129522500D02*
X127227258Y-129522500D01*
X126752742Y-128477500D02*
X127227258Y-128477500D01*
%TO.C,R132*%
X127237258Y-127903500D02*
X126762742Y-127903500D01*
X127237258Y-126858500D02*
X126762742Y-126858500D01*
D13*
%TO.C,U102*%
X116840000Y-57850000D02*
X98840000Y-57850000D01*
X115840000Y-58300000D02*
G75*
G03*
X115840000Y-58300000I-250000J0D01*
G01*
X98840000Y-82550000D02*
X116840000Y-82550000D01*
X98840000Y-51550000D02*
X98840000Y-82550000D01*
X116840000Y-51550000D02*
X98840000Y-51550000D01*
X116840000Y-82550000D02*
X116840000Y-51550000D01*
%TO.C,D3*%
D10*
X129474857Y-87901428D02*
X129474857Y-87301428D01*
X129332000Y-87301428D01*
X129246285Y-87330000D01*
X129189142Y-87387142D01*
X129160571Y-87444285D01*
X129132000Y-87558571D01*
X129132000Y-87644285D01*
X129160571Y-87758571D01*
X129189142Y-87815714D01*
X129246285Y-87872857D01*
X129332000Y-87901428D01*
X129474857Y-87901428D01*
X128932000Y-87301428D02*
X128560571Y-87301428D01*
X128760571Y-87530000D01*
X128674857Y-87530000D01*
X128617714Y-87558571D01*
X128589142Y-87587142D01*
X128560571Y-87644285D01*
X128560571Y-87787142D01*
X128589142Y-87844285D01*
X128617714Y-87872857D01*
X128674857Y-87901428D01*
X128846285Y-87901428D01*
X128903428Y-87872857D01*
X128932000Y-87844285D01*
%TO.C,D2*%
X99883857Y-88917428D02*
X99883857Y-88317428D01*
X99741000Y-88317428D01*
X99655285Y-88346000D01*
X99598142Y-88403142D01*
X99569571Y-88460285D01*
X99541000Y-88574571D01*
X99541000Y-88660285D01*
X99569571Y-88774571D01*
X99598142Y-88831714D01*
X99655285Y-88888857D01*
X99741000Y-88917428D01*
X99883857Y-88917428D01*
X99312428Y-88374571D02*
X99283857Y-88346000D01*
X99226714Y-88317428D01*
X99083857Y-88317428D01*
X99026714Y-88346000D01*
X98998142Y-88374571D01*
X98969571Y-88431714D01*
X98969571Y-88488857D01*
X98998142Y-88574571D01*
X99341000Y-88917428D01*
X98969571Y-88917428D01*
%TO.C,J4*%
X128451000Y-79519428D02*
X128451000Y-78919428D01*
X128251000Y-79348000D01*
X128051000Y-78919428D01*
X128051000Y-79519428D01*
X127679571Y-79519428D02*
X127736714Y-79490857D01*
X127765285Y-79462285D01*
X127793857Y-79405142D01*
X127793857Y-79233714D01*
X127765285Y-79176571D01*
X127736714Y-79148000D01*
X127679571Y-79119428D01*
X127593857Y-79119428D01*
X127536714Y-79148000D01*
X127508142Y-79176571D01*
X127479571Y-79233714D01*
X127479571Y-79405142D01*
X127508142Y-79462285D01*
X127536714Y-79490857D01*
X127593857Y-79519428D01*
X127679571Y-79519428D01*
X127308142Y-79119428D02*
X127079571Y-79119428D01*
X127222428Y-78919428D02*
X127222428Y-79433714D01*
X127193857Y-79490857D01*
X127136714Y-79519428D01*
X127079571Y-79519428D01*
X126793857Y-79519428D02*
X126851000Y-79490857D01*
X126879571Y-79462285D01*
X126908142Y-79405142D01*
X126908142Y-79233714D01*
X126879571Y-79176571D01*
X126851000Y-79148000D01*
X126793857Y-79119428D01*
X126708142Y-79119428D01*
X126651000Y-79148000D01*
X126622428Y-79176571D01*
X126593857Y-79233714D01*
X126593857Y-79405142D01*
X126622428Y-79462285D01*
X126651000Y-79490857D01*
X126708142Y-79519428D01*
X126793857Y-79519428D01*
X126336714Y-79519428D02*
X126336714Y-79119428D01*
X126336714Y-79233714D02*
X126308142Y-79176571D01*
X126279571Y-79148000D01*
X126222428Y-79119428D01*
X126165285Y-79119428D01*
%TO.C,U1*%
X122263628Y-79727257D02*
X122749342Y-79727257D01*
X122806485Y-79755828D01*
X122835057Y-79784400D01*
X122863628Y-79841542D01*
X122863628Y-79955828D01*
X122835057Y-80012971D01*
X122806485Y-80041542D01*
X122749342Y-80070114D01*
X122263628Y-80070114D01*
X122863628Y-80670114D02*
X122863628Y-80327257D01*
X122863628Y-80498685D02*
X122263628Y-80498685D01*
X122349342Y-80441542D01*
X122406485Y-80384400D01*
X122435057Y-80327257D01*
%TO.C,Q1*%
X124019171Y-88324657D02*
X123990600Y-88267514D01*
X123933457Y-88210371D01*
X123847742Y-88124657D01*
X123819171Y-88067514D01*
X123819171Y-88010371D01*
X123962028Y-88038942D02*
X123933457Y-87981800D01*
X123876314Y-87924657D01*
X123762028Y-87896085D01*
X123562028Y-87896085D01*
X123447742Y-87924657D01*
X123390600Y-87981800D01*
X123362028Y-88038942D01*
X123362028Y-88153228D01*
X123390600Y-88210371D01*
X123447742Y-88267514D01*
X123562028Y-88296085D01*
X123762028Y-88296085D01*
X123876314Y-88267514D01*
X123933457Y-88210371D01*
X123962028Y-88153228D01*
X123962028Y-88038942D01*
X123962028Y-88867514D02*
X123962028Y-88524657D01*
X123962028Y-88696085D02*
X123362028Y-88696085D01*
X123447742Y-88638942D01*
X123504885Y-88581800D01*
X123533457Y-88524657D01*
%TO.C,J101*%
D13*
X86541380Y-89468285D02*
X87255666Y-89468285D01*
X87398523Y-89420666D01*
X87493761Y-89325428D01*
X87541380Y-89182571D01*
X87541380Y-89087333D01*
X87541380Y-90468285D02*
X87541380Y-89896857D01*
X87541380Y-90182571D02*
X86541380Y-90182571D01*
X86684238Y-90087333D01*
X86779476Y-89992095D01*
X86827095Y-89896857D01*
X86541380Y-91087333D02*
X86541380Y-91182571D01*
X86589000Y-91277809D01*
X86636619Y-91325428D01*
X86731857Y-91373047D01*
X86922333Y-91420666D01*
X87160428Y-91420666D01*
X87350904Y-91373047D01*
X87446142Y-91325428D01*
X87493761Y-91277809D01*
X87541380Y-91182571D01*
X87541380Y-91087333D01*
X87493761Y-90992095D01*
X87446142Y-90944476D01*
X87350904Y-90896857D01*
X87160428Y-90849238D01*
X86922333Y-90849238D01*
X86731857Y-90896857D01*
X86636619Y-90944476D01*
X86589000Y-90992095D01*
X86541380Y-91087333D01*
X87541380Y-92373047D02*
X87541380Y-91801619D01*
X87541380Y-92087333D02*
X86541380Y-92087333D01*
X86684238Y-91992095D01*
X86779476Y-91896857D01*
X86827095Y-91801619D01*
%TO.C,U101*%
X92564285Y-79452380D02*
X92564285Y-80261904D01*
X92516666Y-80357142D01*
X92469047Y-80404761D01*
X92373809Y-80452380D01*
X92183333Y-80452380D01*
X92088095Y-80404761D01*
X92040476Y-80357142D01*
X91992857Y-80261904D01*
X91992857Y-79452380D01*
X90992857Y-80452380D02*
X91564285Y-80452380D01*
X91278571Y-80452380D02*
X91278571Y-79452380D01*
X91373809Y-79595238D01*
X91469047Y-79690476D01*
X91564285Y-79738095D01*
X90373809Y-79452380D02*
X90278571Y-79452380D01*
X90183333Y-79500000D01*
X90135714Y-79547619D01*
X90088095Y-79642857D01*
X90040476Y-79833333D01*
X90040476Y-80071428D01*
X90088095Y-80261904D01*
X90135714Y-80357142D01*
X90183333Y-80404761D01*
X90278571Y-80452380D01*
X90373809Y-80452380D01*
X90469047Y-80404761D01*
X90516666Y-80357142D01*
X90564285Y-80261904D01*
X90611904Y-80071428D01*
X90611904Y-79833333D01*
X90564285Y-79642857D01*
X90516666Y-79547619D01*
X90469047Y-79500000D01*
X90373809Y-79452380D01*
X89088095Y-80452380D02*
X89659523Y-80452380D01*
X89373809Y-80452380D02*
X89373809Y-79452380D01*
X89469047Y-79595238D01*
X89564285Y-79690476D01*
X89659523Y-79738095D01*
%TO.C,J1*%
X131852380Y-102416666D02*
X132566666Y-102416666D01*
X132709523Y-102369047D01*
X132804761Y-102273809D01*
X132852380Y-102130952D01*
X132852380Y-102035714D01*
X132852380Y-103416666D02*
X132852380Y-102845238D01*
X132852380Y-103130952D02*
X131852380Y-103130952D01*
X131995238Y-103035714D01*
X132090476Y-102940476D01*
X132138095Y-102845238D01*
%TO.C,C1*%
X91899142Y-93853333D02*
X91946761Y-93805714D01*
X91994380Y-93662857D01*
X91994380Y-93567619D01*
X91946761Y-93424761D01*
X91851523Y-93329523D01*
X91756285Y-93281904D01*
X91565809Y-93234285D01*
X91422952Y-93234285D01*
X91232476Y-93281904D01*
X91137238Y-93329523D01*
X91042000Y-93424761D01*
X90994380Y-93567619D01*
X90994380Y-93662857D01*
X91042000Y-93805714D01*
X91089619Y-93853333D01*
X91994380Y-94805714D02*
X91994380Y-94234285D01*
X91994380Y-94520000D02*
X90994380Y-94520000D01*
X91137238Y-94424761D01*
X91232476Y-94329523D01*
X91280095Y-94234285D01*
%TO.C,C6*%
X126912666Y-85701142D02*
X126960285Y-85748761D01*
X127103142Y-85796380D01*
X127198380Y-85796380D01*
X127341238Y-85748761D01*
X127436476Y-85653523D01*
X127484095Y-85558285D01*
X127531714Y-85367809D01*
X127531714Y-85224952D01*
X127484095Y-85034476D01*
X127436476Y-84939238D01*
X127341238Y-84844000D01*
X127198380Y-84796380D01*
X127103142Y-84796380D01*
X126960285Y-84844000D01*
X126912666Y-84891619D01*
X126055523Y-84796380D02*
X126246000Y-84796380D01*
X126341238Y-84844000D01*
X126388857Y-84891619D01*
X126484095Y-85034476D01*
X126531714Y-85224952D01*
X126531714Y-85605904D01*
X126484095Y-85701142D01*
X126436476Y-85748761D01*
X126341238Y-85796380D01*
X126150761Y-85796380D01*
X126055523Y-85748761D01*
X126007904Y-85701142D01*
X125960285Y-85605904D01*
X125960285Y-85367809D01*
X126007904Y-85272571D01*
X126055523Y-85224952D01*
X126150761Y-85177333D01*
X126341238Y-85177333D01*
X126436476Y-85224952D01*
X126484095Y-85272571D01*
X126531714Y-85367809D01*
%TO.C,C8*%
X100347142Y-93619333D02*
X100394761Y-93571714D01*
X100442380Y-93428857D01*
X100442380Y-93333619D01*
X100394761Y-93190761D01*
X100299523Y-93095523D01*
X100204285Y-93047904D01*
X100013809Y-93000285D01*
X99870952Y-93000285D01*
X99680476Y-93047904D01*
X99585238Y-93095523D01*
X99490000Y-93190761D01*
X99442380Y-93333619D01*
X99442380Y-93428857D01*
X99490000Y-93571714D01*
X99537619Y-93619333D01*
X99870952Y-94190761D02*
X99823333Y-94095523D01*
X99775714Y-94047904D01*
X99680476Y-94000285D01*
X99632857Y-94000285D01*
X99537619Y-94047904D01*
X99490000Y-94095523D01*
X99442380Y-94190761D01*
X99442380Y-94381238D01*
X99490000Y-94476476D01*
X99537619Y-94524095D01*
X99632857Y-94571714D01*
X99680476Y-94571714D01*
X99775714Y-94524095D01*
X99823333Y-94476476D01*
X99870952Y-94381238D01*
X99870952Y-94190761D01*
X99918571Y-94095523D01*
X99966190Y-94047904D01*
X100061428Y-94000285D01*
X100251904Y-94000285D01*
X100347142Y-94047904D01*
X100394761Y-94095523D01*
X100442380Y-94190761D01*
X100442380Y-94381238D01*
X100394761Y-94476476D01*
X100347142Y-94524095D01*
X100251904Y-94571714D01*
X100061428Y-94571714D01*
X99966190Y-94524095D01*
X99918571Y-94476476D01*
X99870952Y-94381238D01*
%TO.C,C9*%
X119419666Y-83796142D02*
X119467285Y-83843761D01*
X119610142Y-83891380D01*
X119705380Y-83891380D01*
X119848238Y-83843761D01*
X119943476Y-83748523D01*
X119991095Y-83653285D01*
X120038714Y-83462809D01*
X120038714Y-83319952D01*
X119991095Y-83129476D01*
X119943476Y-83034238D01*
X119848238Y-82939000D01*
X119705380Y-82891380D01*
X119610142Y-82891380D01*
X119467285Y-82939000D01*
X119419666Y-82986619D01*
X118943476Y-83891380D02*
X118753000Y-83891380D01*
X118657761Y-83843761D01*
X118610142Y-83796142D01*
X118514904Y-83653285D01*
X118467285Y-83462809D01*
X118467285Y-83081857D01*
X118514904Y-82986619D01*
X118562523Y-82939000D01*
X118657761Y-82891380D01*
X118848238Y-82891380D01*
X118943476Y-82939000D01*
X118991095Y-82986619D01*
X119038714Y-83081857D01*
X119038714Y-83319952D01*
X118991095Y-83415190D01*
X118943476Y-83462809D01*
X118848238Y-83510428D01*
X118657761Y-83510428D01*
X118562523Y-83462809D01*
X118514904Y-83415190D01*
X118467285Y-83319952D01*
%TO.C,C101*%
X95619047Y-53427142D02*
X95666666Y-53474761D01*
X95809523Y-53522380D01*
X95904761Y-53522380D01*
X96047619Y-53474761D01*
X96142857Y-53379523D01*
X96190476Y-53284285D01*
X96238095Y-53093809D01*
X96238095Y-52950952D01*
X96190476Y-52760476D01*
X96142857Y-52665238D01*
X96047619Y-52570000D01*
X95904761Y-52522380D01*
X95809523Y-52522380D01*
X95666666Y-52570000D01*
X95619047Y-52617619D01*
X94666666Y-53522380D02*
X95238095Y-53522380D01*
X94952380Y-53522380D02*
X94952380Y-52522380D01*
X95047619Y-52665238D01*
X95142857Y-52760476D01*
X95238095Y-52808095D01*
X94047619Y-52522380D02*
X93952380Y-52522380D01*
X93857142Y-52570000D01*
X93809523Y-52617619D01*
X93761904Y-52712857D01*
X93714285Y-52903333D01*
X93714285Y-53141428D01*
X93761904Y-53331904D01*
X93809523Y-53427142D01*
X93857142Y-53474761D01*
X93952380Y-53522380D01*
X94047619Y-53522380D01*
X94142857Y-53474761D01*
X94190476Y-53427142D01*
X94238095Y-53331904D01*
X94285714Y-53141428D01*
X94285714Y-52903333D01*
X94238095Y-52712857D01*
X94190476Y-52617619D01*
X94142857Y-52570000D01*
X94047619Y-52522380D01*
X92761904Y-53522380D02*
X93333333Y-53522380D01*
X93047619Y-53522380D02*
X93047619Y-52522380D01*
X93142857Y-52665238D01*
X93238095Y-52760476D01*
X93333333Y-52808095D01*
%TO.C,C102*%
X122599047Y-53427142D02*
X122646666Y-53474761D01*
X122789523Y-53522380D01*
X122884761Y-53522380D01*
X123027619Y-53474761D01*
X123122857Y-53379523D01*
X123170476Y-53284285D01*
X123218095Y-53093809D01*
X123218095Y-52950952D01*
X123170476Y-52760476D01*
X123122857Y-52665238D01*
X123027619Y-52570000D01*
X122884761Y-52522380D01*
X122789523Y-52522380D01*
X122646666Y-52570000D01*
X122599047Y-52617619D01*
X121646666Y-53522380D02*
X122218095Y-53522380D01*
X121932380Y-53522380D02*
X121932380Y-52522380D01*
X122027619Y-52665238D01*
X122122857Y-52760476D01*
X122218095Y-52808095D01*
X121027619Y-52522380D02*
X120932380Y-52522380D01*
X120837142Y-52570000D01*
X120789523Y-52617619D01*
X120741904Y-52712857D01*
X120694285Y-52903333D01*
X120694285Y-53141428D01*
X120741904Y-53331904D01*
X120789523Y-53427142D01*
X120837142Y-53474761D01*
X120932380Y-53522380D01*
X121027619Y-53522380D01*
X121122857Y-53474761D01*
X121170476Y-53427142D01*
X121218095Y-53331904D01*
X121265714Y-53141428D01*
X121265714Y-52903333D01*
X121218095Y-52712857D01*
X121170476Y-52617619D01*
X121122857Y-52570000D01*
X121027619Y-52522380D01*
X120313333Y-52617619D02*
X120265714Y-52570000D01*
X120170476Y-52522380D01*
X119932380Y-52522380D01*
X119837142Y-52570000D01*
X119789523Y-52617619D01*
X119741904Y-52712857D01*
X119741904Y-52808095D01*
X119789523Y-52950952D01*
X120360952Y-53522380D01*
X119741904Y-53522380D01*
%TO.C,R1*%
X122912666Y-78463380D02*
X123246000Y-77987190D01*
X123484095Y-78463380D02*
X123484095Y-77463380D01*
X123103142Y-77463380D01*
X123007904Y-77511000D01*
X122960285Y-77558619D01*
X122912666Y-77653857D01*
X122912666Y-77796714D01*
X122960285Y-77891952D01*
X123007904Y-77939571D01*
X123103142Y-77987190D01*
X123484095Y-77987190D01*
X121960285Y-78463380D02*
X122531714Y-78463380D01*
X122246000Y-78463380D02*
X122246000Y-77463380D01*
X122341238Y-77606238D01*
X122436476Y-77701476D01*
X122531714Y-77749095D01*
%TO.C,R2*%
X101676666Y-96282380D02*
X102010000Y-95806190D01*
X102248095Y-96282380D02*
X102248095Y-95282380D01*
X101867142Y-95282380D01*
X101771904Y-95330000D01*
X101724285Y-95377619D01*
X101676666Y-95472857D01*
X101676666Y-95615714D01*
X101724285Y-95710952D01*
X101771904Y-95758571D01*
X101867142Y-95806190D01*
X102248095Y-95806190D01*
X101295714Y-95377619D02*
X101248095Y-95330000D01*
X101152857Y-95282380D01*
X100914761Y-95282380D01*
X100819523Y-95330000D01*
X100771904Y-95377619D01*
X100724285Y-95472857D01*
X100724285Y-95568095D01*
X100771904Y-95710952D01*
X101343333Y-96282380D01*
X100724285Y-96282380D01*
%TO.C,R3*%
X95861666Y-58458380D02*
X96195000Y-57982190D01*
X96433095Y-58458380D02*
X96433095Y-57458380D01*
X96052142Y-57458380D01*
X95956904Y-57506000D01*
X95909285Y-57553619D01*
X95861666Y-57648857D01*
X95861666Y-57791714D01*
X95909285Y-57886952D01*
X95956904Y-57934571D01*
X96052142Y-57982190D01*
X96433095Y-57982190D01*
X95528333Y-57458380D02*
X94909285Y-57458380D01*
X95242619Y-57839333D01*
X95099761Y-57839333D01*
X95004523Y-57886952D01*
X94956904Y-57934571D01*
X94909285Y-58029809D01*
X94909285Y-58267904D01*
X94956904Y-58363142D01*
X95004523Y-58410761D01*
X95099761Y-58458380D01*
X95385476Y-58458380D01*
X95480714Y-58410761D01*
X95528333Y-58363142D01*
%TO.C,R4*%
X109480380Y-85842333D02*
X109004190Y-85509000D01*
X109480380Y-85270904D02*
X108480380Y-85270904D01*
X108480380Y-85651857D01*
X108528000Y-85747095D01*
X108575619Y-85794714D01*
X108670857Y-85842333D01*
X108813714Y-85842333D01*
X108908952Y-85794714D01*
X108956571Y-85747095D01*
X109004190Y-85651857D01*
X109004190Y-85270904D01*
X108813714Y-86699476D02*
X109480380Y-86699476D01*
X108432761Y-86461380D02*
X109147047Y-86223285D01*
X109147047Y-86842333D01*
%TO.C,R5*%
X107956380Y-85842333D02*
X107480190Y-85509000D01*
X107956380Y-85270904D02*
X106956380Y-85270904D01*
X106956380Y-85651857D01*
X107004000Y-85747095D01*
X107051619Y-85794714D01*
X107146857Y-85842333D01*
X107289714Y-85842333D01*
X107384952Y-85794714D01*
X107432571Y-85747095D01*
X107480190Y-85651857D01*
X107480190Y-85270904D01*
X106956380Y-86747095D02*
X106956380Y-86270904D01*
X107432571Y-86223285D01*
X107384952Y-86270904D01*
X107337333Y-86366142D01*
X107337333Y-86604238D01*
X107384952Y-86699476D01*
X107432571Y-86747095D01*
X107527809Y-86794714D01*
X107765904Y-86794714D01*
X107861142Y-86747095D01*
X107908761Y-86699476D01*
X107956380Y-86604238D01*
X107956380Y-86366142D01*
X107908761Y-86270904D01*
X107861142Y-86223285D01*
%TO.C,R6*%
X124691380Y-72287333D02*
X124215190Y-71954000D01*
X124691380Y-71715904D02*
X123691380Y-71715904D01*
X123691380Y-72096857D01*
X123739000Y-72192095D01*
X123786619Y-72239714D01*
X123881857Y-72287333D01*
X124024714Y-72287333D01*
X124119952Y-72239714D01*
X124167571Y-72192095D01*
X124215190Y-72096857D01*
X124215190Y-71715904D01*
X123691380Y-73144476D02*
X123691380Y-72954000D01*
X123739000Y-72858761D01*
X123786619Y-72811142D01*
X123929476Y-72715904D01*
X124119952Y-72668285D01*
X124500904Y-72668285D01*
X124596142Y-72715904D01*
X124643761Y-72763523D01*
X124691380Y-72858761D01*
X124691380Y-73049238D01*
X124643761Y-73144476D01*
X124596142Y-73192095D01*
X124500904Y-73239714D01*
X124262809Y-73239714D01*
X124167571Y-73192095D01*
X124119952Y-73144476D01*
X124072333Y-73049238D01*
X124072333Y-72858761D01*
X124119952Y-72763523D01*
X124167571Y-72715904D01*
X124262809Y-72668285D01*
%TO.C,R9*%
X132311380Y-84097333D02*
X131835190Y-83764000D01*
X132311380Y-83525904D02*
X131311380Y-83525904D01*
X131311380Y-83906857D01*
X131359000Y-84002095D01*
X131406619Y-84049714D01*
X131501857Y-84097333D01*
X131644714Y-84097333D01*
X131739952Y-84049714D01*
X131787571Y-84002095D01*
X131835190Y-83906857D01*
X131835190Y-83525904D01*
X132311380Y-84573523D02*
X132311380Y-84764000D01*
X132263761Y-84859238D01*
X132216142Y-84906857D01*
X132073285Y-85002095D01*
X131882809Y-85049714D01*
X131501857Y-85049714D01*
X131406619Y-85002095D01*
X131359000Y-84954476D01*
X131311380Y-84859238D01*
X131311380Y-84668761D01*
X131359000Y-84573523D01*
X131406619Y-84525904D01*
X131501857Y-84478285D01*
X131739952Y-84478285D01*
X131835190Y-84525904D01*
X131882809Y-84573523D01*
X131930428Y-84668761D01*
X131930428Y-84859238D01*
X131882809Y-84954476D01*
X131835190Y-85002095D01*
X131739952Y-85049714D01*
%TO.C,R14*%
X124760380Y-68855142D02*
X124284190Y-68521809D01*
X124760380Y-68283714D02*
X123760380Y-68283714D01*
X123760380Y-68664666D01*
X123808000Y-68759904D01*
X123855619Y-68807523D01*
X123950857Y-68855142D01*
X124093714Y-68855142D01*
X124188952Y-68807523D01*
X124236571Y-68759904D01*
X124284190Y-68664666D01*
X124284190Y-68283714D01*
X124760380Y-69807523D02*
X124760380Y-69236095D01*
X124760380Y-69521809D02*
X123760380Y-69521809D01*
X123903238Y-69426571D01*
X123998476Y-69331333D01*
X124046095Y-69236095D01*
X124093714Y-70664666D02*
X124760380Y-70664666D01*
X123712761Y-70426571D02*
X124427047Y-70188476D01*
X124427047Y-70807523D01*
%TO.C,R16*%
X127427380Y-75457142D02*
X126951190Y-75123809D01*
X127427380Y-74885714D02*
X126427380Y-74885714D01*
X126427380Y-75266666D01*
X126475000Y-75361904D01*
X126522619Y-75409523D01*
X126617857Y-75457142D01*
X126760714Y-75457142D01*
X126855952Y-75409523D01*
X126903571Y-75361904D01*
X126951190Y-75266666D01*
X126951190Y-74885714D01*
X127427380Y-76409523D02*
X127427380Y-75838095D01*
X127427380Y-76123809D02*
X126427380Y-76123809D01*
X126570238Y-76028571D01*
X126665476Y-75933333D01*
X126713095Y-75838095D01*
X126427380Y-77266666D02*
X126427380Y-77076190D01*
X126475000Y-76980952D01*
X126522619Y-76933333D01*
X126665476Y-76838095D01*
X126855952Y-76790476D01*
X127236904Y-76790476D01*
X127332142Y-76838095D01*
X127379761Y-76885714D01*
X127427380Y-76980952D01*
X127427380Y-77171428D01*
X127379761Y-77266666D01*
X127332142Y-77314285D01*
X127236904Y-77361904D01*
X126998809Y-77361904D01*
X126903571Y-77314285D01*
X126855952Y-77266666D01*
X126808333Y-77171428D01*
X126808333Y-76980952D01*
X126855952Y-76885714D01*
X126903571Y-76838095D01*
X126998809Y-76790476D01*
%TO.C,R17*%
X129144380Y-61868142D02*
X128668190Y-61534809D01*
X129144380Y-61296714D02*
X128144380Y-61296714D01*
X128144380Y-61677666D01*
X128192000Y-61772904D01*
X128239619Y-61820523D01*
X128334857Y-61868142D01*
X128477714Y-61868142D01*
X128572952Y-61820523D01*
X128620571Y-61772904D01*
X128668190Y-61677666D01*
X128668190Y-61296714D01*
X129144380Y-62820523D02*
X129144380Y-62249095D01*
X129144380Y-62534809D02*
X128144380Y-62534809D01*
X128287238Y-62439571D01*
X128382476Y-62344333D01*
X128430095Y-62249095D01*
X128144380Y-63153857D02*
X128144380Y-63820523D01*
X129144380Y-63391952D01*
%TO.C,R19*%
X119832380Y-87876142D02*
X119356190Y-87542809D01*
X119832380Y-87304714D02*
X118832380Y-87304714D01*
X118832380Y-87685666D01*
X118880000Y-87780904D01*
X118927619Y-87828523D01*
X119022857Y-87876142D01*
X119165714Y-87876142D01*
X119260952Y-87828523D01*
X119308571Y-87780904D01*
X119356190Y-87685666D01*
X119356190Y-87304714D01*
X119832380Y-88828523D02*
X119832380Y-88257095D01*
X119832380Y-88542809D02*
X118832380Y-88542809D01*
X118975238Y-88447571D01*
X119070476Y-88352333D01*
X119118095Y-88257095D01*
X119832380Y-89304714D02*
X119832380Y-89495190D01*
X119784761Y-89590428D01*
X119737142Y-89638047D01*
X119594285Y-89733285D01*
X119403809Y-89780904D01*
X119022857Y-89780904D01*
X118927619Y-89733285D01*
X118880000Y-89685666D01*
X118832380Y-89590428D01*
X118832380Y-89399952D01*
X118880000Y-89304714D01*
X118927619Y-89257095D01*
X119022857Y-89209476D01*
X119260952Y-89209476D01*
X119356190Y-89257095D01*
X119403809Y-89304714D01*
X119451428Y-89399952D01*
X119451428Y-89590428D01*
X119403809Y-89685666D01*
X119356190Y-89733285D01*
X119260952Y-89780904D01*
%TO.C,R101*%
X90219047Y-121782380D02*
X90552380Y-121306190D01*
X90790476Y-121782380D02*
X90790476Y-120782380D01*
X90409523Y-120782380D01*
X90314285Y-120830000D01*
X90266666Y-120877619D01*
X90219047Y-120972857D01*
X90219047Y-121115714D01*
X90266666Y-121210952D01*
X90314285Y-121258571D01*
X90409523Y-121306190D01*
X90790476Y-121306190D01*
X89266666Y-121782380D02*
X89838095Y-121782380D01*
X89552380Y-121782380D02*
X89552380Y-120782380D01*
X89647619Y-120925238D01*
X89742857Y-121020476D01*
X89838095Y-121068095D01*
X88647619Y-120782380D02*
X88552380Y-120782380D01*
X88457142Y-120830000D01*
X88409523Y-120877619D01*
X88361904Y-120972857D01*
X88314285Y-121163333D01*
X88314285Y-121401428D01*
X88361904Y-121591904D01*
X88409523Y-121687142D01*
X88457142Y-121734761D01*
X88552380Y-121782380D01*
X88647619Y-121782380D01*
X88742857Y-121734761D01*
X88790476Y-121687142D01*
X88838095Y-121591904D01*
X88885714Y-121401428D01*
X88885714Y-121163333D01*
X88838095Y-120972857D01*
X88790476Y-120877619D01*
X88742857Y-120830000D01*
X88647619Y-120782380D01*
X87361904Y-121782380D02*
X87933333Y-121782380D01*
X87647619Y-121782380D02*
X87647619Y-120782380D01*
X87742857Y-120925238D01*
X87838095Y-121020476D01*
X87933333Y-121068095D01*
%TO.C,R102*%
X90109047Y-125895380D02*
X90442380Y-125419190D01*
X90680476Y-125895380D02*
X90680476Y-124895380D01*
X90299523Y-124895380D01*
X90204285Y-124943000D01*
X90156666Y-124990619D01*
X90109047Y-125085857D01*
X90109047Y-125228714D01*
X90156666Y-125323952D01*
X90204285Y-125371571D01*
X90299523Y-125419190D01*
X90680476Y-125419190D01*
X89156666Y-125895380D02*
X89728095Y-125895380D01*
X89442380Y-125895380D02*
X89442380Y-124895380D01*
X89537619Y-125038238D01*
X89632857Y-125133476D01*
X89728095Y-125181095D01*
X88537619Y-124895380D02*
X88442380Y-124895380D01*
X88347142Y-124943000D01*
X88299523Y-124990619D01*
X88251904Y-125085857D01*
X88204285Y-125276333D01*
X88204285Y-125514428D01*
X88251904Y-125704904D01*
X88299523Y-125800142D01*
X88347142Y-125847761D01*
X88442380Y-125895380D01*
X88537619Y-125895380D01*
X88632857Y-125847761D01*
X88680476Y-125800142D01*
X88728095Y-125704904D01*
X88775714Y-125514428D01*
X88775714Y-125276333D01*
X88728095Y-125085857D01*
X88680476Y-124990619D01*
X88632857Y-124943000D01*
X88537619Y-124895380D01*
X87823333Y-124990619D02*
X87775714Y-124943000D01*
X87680476Y-124895380D01*
X87442380Y-124895380D01*
X87347142Y-124943000D01*
X87299523Y-124990619D01*
X87251904Y-125085857D01*
X87251904Y-125181095D01*
X87299523Y-125323952D01*
X87870952Y-125895380D01*
X87251904Y-125895380D01*
%TO.C,R103*%
X90109047Y-113382380D02*
X90442380Y-112906190D01*
X90680476Y-113382380D02*
X90680476Y-112382380D01*
X90299523Y-112382380D01*
X90204285Y-112430000D01*
X90156666Y-112477619D01*
X90109047Y-112572857D01*
X90109047Y-112715714D01*
X90156666Y-112810952D01*
X90204285Y-112858571D01*
X90299523Y-112906190D01*
X90680476Y-112906190D01*
X89156666Y-113382380D02*
X89728095Y-113382380D01*
X89442380Y-113382380D02*
X89442380Y-112382380D01*
X89537619Y-112525238D01*
X89632857Y-112620476D01*
X89728095Y-112668095D01*
X88537619Y-112382380D02*
X88442380Y-112382380D01*
X88347142Y-112430000D01*
X88299523Y-112477619D01*
X88251904Y-112572857D01*
X88204285Y-112763333D01*
X88204285Y-113001428D01*
X88251904Y-113191904D01*
X88299523Y-113287142D01*
X88347142Y-113334761D01*
X88442380Y-113382380D01*
X88537619Y-113382380D01*
X88632857Y-113334761D01*
X88680476Y-113287142D01*
X88728095Y-113191904D01*
X88775714Y-113001428D01*
X88775714Y-112763333D01*
X88728095Y-112572857D01*
X88680476Y-112477619D01*
X88632857Y-112430000D01*
X88537619Y-112382380D01*
X87870952Y-112382380D02*
X87251904Y-112382380D01*
X87585238Y-112763333D01*
X87442380Y-112763333D01*
X87347142Y-112810952D01*
X87299523Y-112858571D01*
X87251904Y-112953809D01*
X87251904Y-113191904D01*
X87299523Y-113287142D01*
X87347142Y-113334761D01*
X87442380Y-113382380D01*
X87728095Y-113382380D01*
X87823333Y-113334761D01*
X87870952Y-113287142D01*
%TO.C,R104*%
X121609047Y-112753380D02*
X121942380Y-112277190D01*
X122180476Y-112753380D02*
X122180476Y-111753380D01*
X121799523Y-111753380D01*
X121704285Y-111801000D01*
X121656666Y-111848619D01*
X121609047Y-111943857D01*
X121609047Y-112086714D01*
X121656666Y-112181952D01*
X121704285Y-112229571D01*
X121799523Y-112277190D01*
X122180476Y-112277190D01*
X120656666Y-112753380D02*
X121228095Y-112753380D01*
X120942380Y-112753380D02*
X120942380Y-111753380D01*
X121037619Y-111896238D01*
X121132857Y-111991476D01*
X121228095Y-112039095D01*
X120037619Y-111753380D02*
X119942380Y-111753380D01*
X119847142Y-111801000D01*
X119799523Y-111848619D01*
X119751904Y-111943857D01*
X119704285Y-112134333D01*
X119704285Y-112372428D01*
X119751904Y-112562904D01*
X119799523Y-112658142D01*
X119847142Y-112705761D01*
X119942380Y-112753380D01*
X120037619Y-112753380D01*
X120132857Y-112705761D01*
X120180476Y-112658142D01*
X120228095Y-112562904D01*
X120275714Y-112372428D01*
X120275714Y-112134333D01*
X120228095Y-111943857D01*
X120180476Y-111848619D01*
X120132857Y-111801000D01*
X120037619Y-111753380D01*
X118847142Y-112086714D02*
X118847142Y-112753380D01*
X119085238Y-111705761D02*
X119323333Y-112420047D01*
X118704285Y-112420047D01*
%TO.C,R105*%
X90219047Y-117132380D02*
X90552380Y-116656190D01*
X90790476Y-117132380D02*
X90790476Y-116132380D01*
X90409523Y-116132380D01*
X90314285Y-116180000D01*
X90266666Y-116227619D01*
X90219047Y-116322857D01*
X90219047Y-116465714D01*
X90266666Y-116560952D01*
X90314285Y-116608571D01*
X90409523Y-116656190D01*
X90790476Y-116656190D01*
X89266666Y-117132380D02*
X89838095Y-117132380D01*
X89552380Y-117132380D02*
X89552380Y-116132380D01*
X89647619Y-116275238D01*
X89742857Y-116370476D01*
X89838095Y-116418095D01*
X88647619Y-116132380D02*
X88552380Y-116132380D01*
X88457142Y-116180000D01*
X88409523Y-116227619D01*
X88361904Y-116322857D01*
X88314285Y-116513333D01*
X88314285Y-116751428D01*
X88361904Y-116941904D01*
X88409523Y-117037142D01*
X88457142Y-117084761D01*
X88552380Y-117132380D01*
X88647619Y-117132380D01*
X88742857Y-117084761D01*
X88790476Y-117037142D01*
X88838095Y-116941904D01*
X88885714Y-116751428D01*
X88885714Y-116513333D01*
X88838095Y-116322857D01*
X88790476Y-116227619D01*
X88742857Y-116180000D01*
X88647619Y-116132380D01*
X87409523Y-116132380D02*
X87885714Y-116132380D01*
X87933333Y-116608571D01*
X87885714Y-116560952D01*
X87790476Y-116513333D01*
X87552380Y-116513333D01*
X87457142Y-116560952D01*
X87409523Y-116608571D01*
X87361904Y-116703809D01*
X87361904Y-116941904D01*
X87409523Y-117037142D01*
X87457142Y-117084761D01*
X87552380Y-117132380D01*
X87790476Y-117132380D01*
X87885714Y-117084761D01*
X87933333Y-117037142D01*
%TO.C,R106*%
X90119047Y-130382380D02*
X90452380Y-129906190D01*
X90690476Y-130382380D02*
X90690476Y-129382380D01*
X90309523Y-129382380D01*
X90214285Y-129430000D01*
X90166666Y-129477619D01*
X90119047Y-129572857D01*
X90119047Y-129715714D01*
X90166666Y-129810952D01*
X90214285Y-129858571D01*
X90309523Y-129906190D01*
X90690476Y-129906190D01*
X89166666Y-130382380D02*
X89738095Y-130382380D01*
X89452380Y-130382380D02*
X89452380Y-129382380D01*
X89547619Y-129525238D01*
X89642857Y-129620476D01*
X89738095Y-129668095D01*
X88547619Y-129382380D02*
X88452380Y-129382380D01*
X88357142Y-129430000D01*
X88309523Y-129477619D01*
X88261904Y-129572857D01*
X88214285Y-129763333D01*
X88214285Y-130001428D01*
X88261904Y-130191904D01*
X88309523Y-130287142D01*
X88357142Y-130334761D01*
X88452380Y-130382380D01*
X88547619Y-130382380D01*
X88642857Y-130334761D01*
X88690476Y-130287142D01*
X88738095Y-130191904D01*
X88785714Y-130001428D01*
X88785714Y-129763333D01*
X88738095Y-129572857D01*
X88690476Y-129477619D01*
X88642857Y-129430000D01*
X88547619Y-129382380D01*
X87357142Y-129382380D02*
X87547619Y-129382380D01*
X87642857Y-129430000D01*
X87690476Y-129477619D01*
X87785714Y-129620476D01*
X87833333Y-129810952D01*
X87833333Y-130191904D01*
X87785714Y-130287142D01*
X87738095Y-130334761D01*
X87642857Y-130382380D01*
X87452380Y-130382380D01*
X87357142Y-130334761D01*
X87309523Y-130287142D01*
X87261904Y-130191904D01*
X87261904Y-129953809D01*
X87309523Y-129858571D01*
X87357142Y-129810952D01*
X87452380Y-129763333D01*
X87642857Y-129763333D01*
X87738095Y-129810952D01*
X87785714Y-129858571D01*
X87833333Y-129953809D01*
%TO.C,R107*%
X90109047Y-108877380D02*
X90442380Y-108401190D01*
X90680476Y-108877380D02*
X90680476Y-107877380D01*
X90299523Y-107877380D01*
X90204285Y-107925000D01*
X90156666Y-107972619D01*
X90109047Y-108067857D01*
X90109047Y-108210714D01*
X90156666Y-108305952D01*
X90204285Y-108353571D01*
X90299523Y-108401190D01*
X90680476Y-108401190D01*
X89156666Y-108877380D02*
X89728095Y-108877380D01*
X89442380Y-108877380D02*
X89442380Y-107877380D01*
X89537619Y-108020238D01*
X89632857Y-108115476D01*
X89728095Y-108163095D01*
X88537619Y-107877380D02*
X88442380Y-107877380D01*
X88347142Y-107925000D01*
X88299523Y-107972619D01*
X88251904Y-108067857D01*
X88204285Y-108258333D01*
X88204285Y-108496428D01*
X88251904Y-108686904D01*
X88299523Y-108782142D01*
X88347142Y-108829761D01*
X88442380Y-108877380D01*
X88537619Y-108877380D01*
X88632857Y-108829761D01*
X88680476Y-108782142D01*
X88728095Y-108686904D01*
X88775714Y-108496428D01*
X88775714Y-108258333D01*
X88728095Y-108067857D01*
X88680476Y-107972619D01*
X88632857Y-107925000D01*
X88537619Y-107877380D01*
X87870952Y-107877380D02*
X87204285Y-107877380D01*
X87632857Y-108877380D01*
%TO.C,R108*%
X121629047Y-108284380D02*
X121962380Y-107808190D01*
X122200476Y-108284380D02*
X122200476Y-107284380D01*
X121819523Y-107284380D01*
X121724285Y-107332000D01*
X121676666Y-107379619D01*
X121629047Y-107474857D01*
X121629047Y-107617714D01*
X121676666Y-107712952D01*
X121724285Y-107760571D01*
X121819523Y-107808190D01*
X122200476Y-107808190D01*
X120676666Y-108284380D02*
X121248095Y-108284380D01*
X120962380Y-108284380D02*
X120962380Y-107284380D01*
X121057619Y-107427238D01*
X121152857Y-107522476D01*
X121248095Y-107570095D01*
X120057619Y-107284380D02*
X119962380Y-107284380D01*
X119867142Y-107332000D01*
X119819523Y-107379619D01*
X119771904Y-107474857D01*
X119724285Y-107665333D01*
X119724285Y-107903428D01*
X119771904Y-108093904D01*
X119819523Y-108189142D01*
X119867142Y-108236761D01*
X119962380Y-108284380D01*
X120057619Y-108284380D01*
X120152857Y-108236761D01*
X120200476Y-108189142D01*
X120248095Y-108093904D01*
X120295714Y-107903428D01*
X120295714Y-107665333D01*
X120248095Y-107474857D01*
X120200476Y-107379619D01*
X120152857Y-107332000D01*
X120057619Y-107284380D01*
X119152857Y-107712952D02*
X119248095Y-107665333D01*
X119295714Y-107617714D01*
X119343333Y-107522476D01*
X119343333Y-107474857D01*
X119295714Y-107379619D01*
X119248095Y-107332000D01*
X119152857Y-107284380D01*
X118962380Y-107284380D01*
X118867142Y-107332000D01*
X118819523Y-107379619D01*
X118771904Y-107474857D01*
X118771904Y-107522476D01*
X118819523Y-107617714D01*
X118867142Y-107665333D01*
X118962380Y-107712952D01*
X119152857Y-107712952D01*
X119248095Y-107760571D01*
X119295714Y-107808190D01*
X119343333Y-107903428D01*
X119343333Y-108093904D01*
X119295714Y-108189142D01*
X119248095Y-108236761D01*
X119152857Y-108284380D01*
X118962380Y-108284380D01*
X118867142Y-108236761D01*
X118819523Y-108189142D01*
X118771904Y-108093904D01*
X118771904Y-107903428D01*
X118819523Y-107808190D01*
X118867142Y-107760571D01*
X118962380Y-107712952D01*
%TO.C,R109*%
X102629047Y-117259380D02*
X102962380Y-116783190D01*
X103200476Y-117259380D02*
X103200476Y-116259380D01*
X102819523Y-116259380D01*
X102724285Y-116307000D01*
X102676666Y-116354619D01*
X102629047Y-116449857D01*
X102629047Y-116592714D01*
X102676666Y-116687952D01*
X102724285Y-116735571D01*
X102819523Y-116783190D01*
X103200476Y-116783190D01*
X101676666Y-117259380D02*
X102248095Y-117259380D01*
X101962380Y-117259380D02*
X101962380Y-116259380D01*
X102057619Y-116402238D01*
X102152857Y-116497476D01*
X102248095Y-116545095D01*
X101057619Y-116259380D02*
X100962380Y-116259380D01*
X100867142Y-116307000D01*
X100819523Y-116354619D01*
X100771904Y-116449857D01*
X100724285Y-116640333D01*
X100724285Y-116878428D01*
X100771904Y-117068904D01*
X100819523Y-117164142D01*
X100867142Y-117211761D01*
X100962380Y-117259380D01*
X101057619Y-117259380D01*
X101152857Y-117211761D01*
X101200476Y-117164142D01*
X101248095Y-117068904D01*
X101295714Y-116878428D01*
X101295714Y-116640333D01*
X101248095Y-116449857D01*
X101200476Y-116354619D01*
X101152857Y-116307000D01*
X101057619Y-116259380D01*
X100248095Y-117259380D02*
X100057619Y-117259380D01*
X99962380Y-117211761D01*
X99914761Y-117164142D01*
X99819523Y-117021285D01*
X99771904Y-116830809D01*
X99771904Y-116449857D01*
X99819523Y-116354619D01*
X99867142Y-116307000D01*
X99962380Y-116259380D01*
X100152857Y-116259380D01*
X100248095Y-116307000D01*
X100295714Y-116354619D01*
X100343333Y-116449857D01*
X100343333Y-116687952D01*
X100295714Y-116783190D01*
X100248095Y-116830809D01*
X100152857Y-116878428D01*
X99962380Y-116878428D01*
X99867142Y-116830809D01*
X99819523Y-116783190D01*
X99771904Y-116687952D01*
%TO.C,R110*%
X102609047Y-126403380D02*
X102942380Y-125927190D01*
X103180476Y-126403380D02*
X103180476Y-125403380D01*
X102799523Y-125403380D01*
X102704285Y-125451000D01*
X102656666Y-125498619D01*
X102609047Y-125593857D01*
X102609047Y-125736714D01*
X102656666Y-125831952D01*
X102704285Y-125879571D01*
X102799523Y-125927190D01*
X103180476Y-125927190D01*
X101656666Y-126403380D02*
X102228095Y-126403380D01*
X101942380Y-126403380D02*
X101942380Y-125403380D01*
X102037619Y-125546238D01*
X102132857Y-125641476D01*
X102228095Y-125689095D01*
X100704285Y-126403380D02*
X101275714Y-126403380D01*
X100990000Y-126403380D02*
X100990000Y-125403380D01*
X101085238Y-125546238D01*
X101180476Y-125641476D01*
X101275714Y-125689095D01*
X100085238Y-125403380D02*
X99990000Y-125403380D01*
X99894761Y-125451000D01*
X99847142Y-125498619D01*
X99799523Y-125593857D01*
X99751904Y-125784333D01*
X99751904Y-126022428D01*
X99799523Y-126212904D01*
X99847142Y-126308142D01*
X99894761Y-126355761D01*
X99990000Y-126403380D01*
X100085238Y-126403380D01*
X100180476Y-126355761D01*
X100228095Y-126308142D01*
X100275714Y-126212904D01*
X100323333Y-126022428D01*
X100323333Y-125784333D01*
X100275714Y-125593857D01*
X100228095Y-125498619D01*
X100180476Y-125451000D01*
X100085238Y-125403380D01*
%TO.C,R111*%
X102629047Y-112982380D02*
X102962380Y-112506190D01*
X103200476Y-112982380D02*
X103200476Y-111982380D01*
X102819523Y-111982380D01*
X102724285Y-112030000D01*
X102676666Y-112077619D01*
X102629047Y-112172857D01*
X102629047Y-112315714D01*
X102676666Y-112410952D01*
X102724285Y-112458571D01*
X102819523Y-112506190D01*
X103200476Y-112506190D01*
X101676666Y-112982380D02*
X102248095Y-112982380D01*
X101962380Y-112982380D02*
X101962380Y-111982380D01*
X102057619Y-112125238D01*
X102152857Y-112220476D01*
X102248095Y-112268095D01*
X100724285Y-112982380D02*
X101295714Y-112982380D01*
X101010000Y-112982380D02*
X101010000Y-111982380D01*
X101105238Y-112125238D01*
X101200476Y-112220476D01*
X101295714Y-112268095D01*
X99771904Y-112982380D02*
X100343333Y-112982380D01*
X100057619Y-112982380D02*
X100057619Y-111982380D01*
X100152857Y-112125238D01*
X100248095Y-112220476D01*
X100343333Y-112268095D01*
%TO.C,R112*%
X102574047Y-103982380D02*
X102907380Y-103506190D01*
X103145476Y-103982380D02*
X103145476Y-102982380D01*
X102764523Y-102982380D01*
X102669285Y-103030000D01*
X102621666Y-103077619D01*
X102574047Y-103172857D01*
X102574047Y-103315714D01*
X102621666Y-103410952D01*
X102669285Y-103458571D01*
X102764523Y-103506190D01*
X103145476Y-103506190D01*
X101621666Y-103982380D02*
X102193095Y-103982380D01*
X101907380Y-103982380D02*
X101907380Y-102982380D01*
X102002619Y-103125238D01*
X102097857Y-103220476D01*
X102193095Y-103268095D01*
X100669285Y-103982380D02*
X101240714Y-103982380D01*
X100955000Y-103982380D02*
X100955000Y-102982380D01*
X101050238Y-103125238D01*
X101145476Y-103220476D01*
X101240714Y-103268095D01*
X100288333Y-103077619D02*
X100240714Y-103030000D01*
X100145476Y-102982380D01*
X99907380Y-102982380D01*
X99812142Y-103030000D01*
X99764523Y-103077619D01*
X99716904Y-103172857D01*
X99716904Y-103268095D01*
X99764523Y-103410952D01*
X100335952Y-103982380D01*
X99716904Y-103982380D01*
%TO.C,R113*%
X127909047Y-109122380D02*
X128242380Y-108646190D01*
X128480476Y-109122380D02*
X128480476Y-108122380D01*
X128099523Y-108122380D01*
X128004285Y-108170000D01*
X127956666Y-108217619D01*
X127909047Y-108312857D01*
X127909047Y-108455714D01*
X127956666Y-108550952D01*
X128004285Y-108598571D01*
X128099523Y-108646190D01*
X128480476Y-108646190D01*
X126956666Y-109122380D02*
X127528095Y-109122380D01*
X127242380Y-109122380D02*
X127242380Y-108122380D01*
X127337619Y-108265238D01*
X127432857Y-108360476D01*
X127528095Y-108408095D01*
X126004285Y-109122380D02*
X126575714Y-109122380D01*
X126290000Y-109122380D02*
X126290000Y-108122380D01*
X126385238Y-108265238D01*
X126480476Y-108360476D01*
X126575714Y-108408095D01*
X125670952Y-108122380D02*
X125051904Y-108122380D01*
X125385238Y-108503333D01*
X125242380Y-108503333D01*
X125147142Y-108550952D01*
X125099523Y-108598571D01*
X125051904Y-108693809D01*
X125051904Y-108931904D01*
X125099523Y-109027142D01*
X125147142Y-109074761D01*
X125242380Y-109122380D01*
X125528095Y-109122380D01*
X125623333Y-109074761D01*
X125670952Y-109027142D01*
%TO.C,R114*%
X102609047Y-121782380D02*
X102942380Y-121306190D01*
X103180476Y-121782380D02*
X103180476Y-120782380D01*
X102799523Y-120782380D01*
X102704285Y-120830000D01*
X102656666Y-120877619D01*
X102609047Y-120972857D01*
X102609047Y-121115714D01*
X102656666Y-121210952D01*
X102704285Y-121258571D01*
X102799523Y-121306190D01*
X103180476Y-121306190D01*
X101656666Y-121782380D02*
X102228095Y-121782380D01*
X101942380Y-121782380D02*
X101942380Y-120782380D01*
X102037619Y-120925238D01*
X102132857Y-121020476D01*
X102228095Y-121068095D01*
X100704285Y-121782380D02*
X101275714Y-121782380D01*
X100990000Y-121782380D02*
X100990000Y-120782380D01*
X101085238Y-120925238D01*
X101180476Y-121020476D01*
X101275714Y-121068095D01*
X99847142Y-121115714D02*
X99847142Y-121782380D01*
X100085238Y-120734761D02*
X100323333Y-121449047D01*
X99704285Y-121449047D01*
%TO.C,R115*%
X102609047Y-130882380D02*
X102942380Y-130406190D01*
X103180476Y-130882380D02*
X103180476Y-129882380D01*
X102799523Y-129882380D01*
X102704285Y-129930000D01*
X102656666Y-129977619D01*
X102609047Y-130072857D01*
X102609047Y-130215714D01*
X102656666Y-130310952D01*
X102704285Y-130358571D01*
X102799523Y-130406190D01*
X103180476Y-130406190D01*
X101656666Y-130882380D02*
X102228095Y-130882380D01*
X101942380Y-130882380D02*
X101942380Y-129882380D01*
X102037619Y-130025238D01*
X102132857Y-130120476D01*
X102228095Y-130168095D01*
X100704285Y-130882380D02*
X101275714Y-130882380D01*
X100990000Y-130882380D02*
X100990000Y-129882380D01*
X101085238Y-130025238D01*
X101180476Y-130120476D01*
X101275714Y-130168095D01*
X99799523Y-129882380D02*
X100275714Y-129882380D01*
X100323333Y-130358571D01*
X100275714Y-130310952D01*
X100180476Y-130263333D01*
X99942380Y-130263333D01*
X99847142Y-130310952D01*
X99799523Y-130358571D01*
X99751904Y-130453809D01*
X99751904Y-130691904D01*
X99799523Y-130787142D01*
X99847142Y-130834761D01*
X99942380Y-130882380D01*
X100180476Y-130882380D01*
X100275714Y-130834761D01*
X100323333Y-130787142D01*
%TO.C,R116*%
X102609047Y-108369380D02*
X102942380Y-107893190D01*
X103180476Y-108369380D02*
X103180476Y-107369380D01*
X102799523Y-107369380D01*
X102704285Y-107417000D01*
X102656666Y-107464619D01*
X102609047Y-107559857D01*
X102609047Y-107702714D01*
X102656666Y-107797952D01*
X102704285Y-107845571D01*
X102799523Y-107893190D01*
X103180476Y-107893190D01*
X101656666Y-108369380D02*
X102228095Y-108369380D01*
X101942380Y-108369380D02*
X101942380Y-107369380D01*
X102037619Y-107512238D01*
X102132857Y-107607476D01*
X102228095Y-107655095D01*
X100704285Y-108369380D02*
X101275714Y-108369380D01*
X100990000Y-108369380D02*
X100990000Y-107369380D01*
X101085238Y-107512238D01*
X101180476Y-107607476D01*
X101275714Y-107655095D01*
X99847142Y-107369380D02*
X100037619Y-107369380D01*
X100132857Y-107417000D01*
X100180476Y-107464619D01*
X100275714Y-107607476D01*
X100323333Y-107797952D01*
X100323333Y-108178904D01*
X100275714Y-108274142D01*
X100228095Y-108321761D01*
X100132857Y-108369380D01*
X99942380Y-108369380D01*
X99847142Y-108321761D01*
X99799523Y-108274142D01*
X99751904Y-108178904D01*
X99751904Y-107940809D01*
X99799523Y-107845571D01*
X99847142Y-107797952D01*
X99942380Y-107750333D01*
X100132857Y-107750333D01*
X100228095Y-107797952D01*
X100275714Y-107845571D01*
X100323333Y-107940809D01*
%TO.C,R117*%
X102619047Y-99479380D02*
X102952380Y-99003190D01*
X103190476Y-99479380D02*
X103190476Y-98479380D01*
X102809523Y-98479380D01*
X102714285Y-98527000D01*
X102666666Y-98574619D01*
X102619047Y-98669857D01*
X102619047Y-98812714D01*
X102666666Y-98907952D01*
X102714285Y-98955571D01*
X102809523Y-99003190D01*
X103190476Y-99003190D01*
X101666666Y-99479380D02*
X102238095Y-99479380D01*
X101952380Y-99479380D02*
X101952380Y-98479380D01*
X102047619Y-98622238D01*
X102142857Y-98717476D01*
X102238095Y-98765095D01*
X100714285Y-99479380D02*
X101285714Y-99479380D01*
X101000000Y-99479380D02*
X101000000Y-98479380D01*
X101095238Y-98622238D01*
X101190476Y-98717476D01*
X101285714Y-98765095D01*
X100380952Y-98479380D02*
X99714285Y-98479380D01*
X100142857Y-99479380D01*
%TO.C,R118*%
X127909047Y-113769380D02*
X128242380Y-113293190D01*
X128480476Y-113769380D02*
X128480476Y-112769380D01*
X128099523Y-112769380D01*
X128004285Y-112817000D01*
X127956666Y-112864619D01*
X127909047Y-112959857D01*
X127909047Y-113102714D01*
X127956666Y-113197952D01*
X128004285Y-113245571D01*
X128099523Y-113293190D01*
X128480476Y-113293190D01*
X126956666Y-113769380D02*
X127528095Y-113769380D01*
X127242380Y-113769380D02*
X127242380Y-112769380D01*
X127337619Y-112912238D01*
X127432857Y-113007476D01*
X127528095Y-113055095D01*
X126004285Y-113769380D02*
X126575714Y-113769380D01*
X126290000Y-113769380D02*
X126290000Y-112769380D01*
X126385238Y-112912238D01*
X126480476Y-113007476D01*
X126575714Y-113055095D01*
X125432857Y-113197952D02*
X125528095Y-113150333D01*
X125575714Y-113102714D01*
X125623333Y-113007476D01*
X125623333Y-112959857D01*
X125575714Y-112864619D01*
X125528095Y-112817000D01*
X125432857Y-112769380D01*
X125242380Y-112769380D01*
X125147142Y-112817000D01*
X125099523Y-112864619D01*
X125051904Y-112959857D01*
X125051904Y-113007476D01*
X125099523Y-113102714D01*
X125147142Y-113150333D01*
X125242380Y-113197952D01*
X125432857Y-113197952D01*
X125528095Y-113245571D01*
X125575714Y-113293190D01*
X125623333Y-113388428D01*
X125623333Y-113578904D01*
X125575714Y-113674142D01*
X125528095Y-113721761D01*
X125432857Y-113769380D01*
X125242380Y-113769380D01*
X125147142Y-113721761D01*
X125099523Y-113674142D01*
X125051904Y-113578904D01*
X125051904Y-113388428D01*
X125099523Y-113293190D01*
X125147142Y-113245571D01*
X125242380Y-113197952D01*
%TO.C,R119*%
X115619047Y-121882380D02*
X115952380Y-121406190D01*
X116190476Y-121882380D02*
X116190476Y-120882380D01*
X115809523Y-120882380D01*
X115714285Y-120930000D01*
X115666666Y-120977619D01*
X115619047Y-121072857D01*
X115619047Y-121215714D01*
X115666666Y-121310952D01*
X115714285Y-121358571D01*
X115809523Y-121406190D01*
X116190476Y-121406190D01*
X114666666Y-121882380D02*
X115238095Y-121882380D01*
X114952380Y-121882380D02*
X114952380Y-120882380D01*
X115047619Y-121025238D01*
X115142857Y-121120476D01*
X115238095Y-121168095D01*
X113714285Y-121882380D02*
X114285714Y-121882380D01*
X114000000Y-121882380D02*
X114000000Y-120882380D01*
X114095238Y-121025238D01*
X114190476Y-121120476D01*
X114285714Y-121168095D01*
X113238095Y-121882380D02*
X113047619Y-121882380D01*
X112952380Y-121834761D01*
X112904761Y-121787142D01*
X112809523Y-121644285D01*
X112761904Y-121453809D01*
X112761904Y-121072857D01*
X112809523Y-120977619D01*
X112857142Y-120930000D01*
X112952380Y-120882380D01*
X113142857Y-120882380D01*
X113238095Y-120930000D01*
X113285714Y-120977619D01*
X113333333Y-121072857D01*
X113333333Y-121310952D01*
X113285714Y-121406190D01*
X113238095Y-121453809D01*
X113142857Y-121501428D01*
X112952380Y-121501428D01*
X112857142Y-121453809D01*
X112809523Y-121406190D01*
X112761904Y-121310952D01*
%TO.C,R120*%
X115609047Y-130382380D02*
X115942380Y-129906190D01*
X116180476Y-130382380D02*
X116180476Y-129382380D01*
X115799523Y-129382380D01*
X115704285Y-129430000D01*
X115656666Y-129477619D01*
X115609047Y-129572857D01*
X115609047Y-129715714D01*
X115656666Y-129810952D01*
X115704285Y-129858571D01*
X115799523Y-129906190D01*
X116180476Y-129906190D01*
X114656666Y-130382380D02*
X115228095Y-130382380D01*
X114942380Y-130382380D02*
X114942380Y-129382380D01*
X115037619Y-129525238D01*
X115132857Y-129620476D01*
X115228095Y-129668095D01*
X114275714Y-129477619D02*
X114228095Y-129430000D01*
X114132857Y-129382380D01*
X113894761Y-129382380D01*
X113799523Y-129430000D01*
X113751904Y-129477619D01*
X113704285Y-129572857D01*
X113704285Y-129668095D01*
X113751904Y-129810952D01*
X114323333Y-130382380D01*
X113704285Y-130382380D01*
X113085238Y-129382380D02*
X112990000Y-129382380D01*
X112894761Y-129430000D01*
X112847142Y-129477619D01*
X112799523Y-129572857D01*
X112751904Y-129763333D01*
X112751904Y-130001428D01*
X112799523Y-130191904D01*
X112847142Y-130287142D01*
X112894761Y-130334761D01*
X112990000Y-130382380D01*
X113085238Y-130382380D01*
X113180476Y-130334761D01*
X113228095Y-130287142D01*
X113275714Y-130191904D01*
X113323333Y-130001428D01*
X113323333Y-129763333D01*
X113275714Y-129572857D01*
X113228095Y-129477619D01*
X113180476Y-129430000D01*
X113085238Y-129382380D01*
%TO.C,R121*%
X115619047Y-109022380D02*
X115952380Y-108546190D01*
X116190476Y-109022380D02*
X116190476Y-108022380D01*
X115809523Y-108022380D01*
X115714285Y-108070000D01*
X115666666Y-108117619D01*
X115619047Y-108212857D01*
X115619047Y-108355714D01*
X115666666Y-108450952D01*
X115714285Y-108498571D01*
X115809523Y-108546190D01*
X116190476Y-108546190D01*
X114666666Y-109022380D02*
X115238095Y-109022380D01*
X114952380Y-109022380D02*
X114952380Y-108022380D01*
X115047619Y-108165238D01*
X115142857Y-108260476D01*
X115238095Y-108308095D01*
X114285714Y-108117619D02*
X114238095Y-108070000D01*
X114142857Y-108022380D01*
X113904761Y-108022380D01*
X113809523Y-108070000D01*
X113761904Y-108117619D01*
X113714285Y-108212857D01*
X113714285Y-108308095D01*
X113761904Y-108450952D01*
X114333333Y-109022380D01*
X113714285Y-109022380D01*
X112761904Y-109022380D02*
X113333333Y-109022380D01*
X113047619Y-109022380D02*
X113047619Y-108022380D01*
X113142857Y-108165238D01*
X113238095Y-108260476D01*
X113333333Y-108308095D01*
%TO.C,R122*%
X107491047Y-99479380D02*
X107824380Y-99003190D01*
X108062476Y-99479380D02*
X108062476Y-98479380D01*
X107681523Y-98479380D01*
X107586285Y-98527000D01*
X107538666Y-98574619D01*
X107491047Y-98669857D01*
X107491047Y-98812714D01*
X107538666Y-98907952D01*
X107586285Y-98955571D01*
X107681523Y-99003190D01*
X108062476Y-99003190D01*
X106538666Y-99479380D02*
X107110095Y-99479380D01*
X106824380Y-99479380D02*
X106824380Y-98479380D01*
X106919619Y-98622238D01*
X107014857Y-98717476D01*
X107110095Y-98765095D01*
X106157714Y-98574619D02*
X106110095Y-98527000D01*
X106014857Y-98479380D01*
X105776761Y-98479380D01*
X105681523Y-98527000D01*
X105633904Y-98574619D01*
X105586285Y-98669857D01*
X105586285Y-98765095D01*
X105633904Y-98907952D01*
X106205333Y-99479380D01*
X105586285Y-99479380D01*
X105205333Y-98574619D02*
X105157714Y-98527000D01*
X105062476Y-98479380D01*
X104824380Y-98479380D01*
X104729142Y-98527000D01*
X104681523Y-98574619D01*
X104633904Y-98669857D01*
X104633904Y-98765095D01*
X104681523Y-98907952D01*
X105252952Y-99479380D01*
X104633904Y-99479380D01*
%TO.C,R123*%
X128119047Y-121882380D02*
X128452380Y-121406190D01*
X128690476Y-121882380D02*
X128690476Y-120882380D01*
X128309523Y-120882380D01*
X128214285Y-120930000D01*
X128166666Y-120977619D01*
X128119047Y-121072857D01*
X128119047Y-121215714D01*
X128166666Y-121310952D01*
X128214285Y-121358571D01*
X128309523Y-121406190D01*
X128690476Y-121406190D01*
X127166666Y-121882380D02*
X127738095Y-121882380D01*
X127452380Y-121882380D02*
X127452380Y-120882380D01*
X127547619Y-121025238D01*
X127642857Y-121120476D01*
X127738095Y-121168095D01*
X126785714Y-120977619D02*
X126738095Y-120930000D01*
X126642857Y-120882380D01*
X126404761Y-120882380D01*
X126309523Y-120930000D01*
X126261904Y-120977619D01*
X126214285Y-121072857D01*
X126214285Y-121168095D01*
X126261904Y-121310952D01*
X126833333Y-121882380D01*
X126214285Y-121882380D01*
X125880952Y-120882380D02*
X125261904Y-120882380D01*
X125595238Y-121263333D01*
X125452380Y-121263333D01*
X125357142Y-121310952D01*
X125309523Y-121358571D01*
X125261904Y-121453809D01*
X125261904Y-121691904D01*
X125309523Y-121787142D01*
X125357142Y-121834761D01*
X125452380Y-121882380D01*
X125738095Y-121882380D01*
X125833333Y-121834761D01*
X125880952Y-121787142D01*
%TO.C,R124*%
X115619047Y-117259380D02*
X115952380Y-116783190D01*
X116190476Y-117259380D02*
X116190476Y-116259380D01*
X115809523Y-116259380D01*
X115714285Y-116307000D01*
X115666666Y-116354619D01*
X115619047Y-116449857D01*
X115619047Y-116592714D01*
X115666666Y-116687952D01*
X115714285Y-116735571D01*
X115809523Y-116783190D01*
X116190476Y-116783190D01*
X114666666Y-117259380D02*
X115238095Y-117259380D01*
X114952380Y-117259380D02*
X114952380Y-116259380D01*
X115047619Y-116402238D01*
X115142857Y-116497476D01*
X115238095Y-116545095D01*
X114285714Y-116354619D02*
X114238095Y-116307000D01*
X114142857Y-116259380D01*
X113904761Y-116259380D01*
X113809523Y-116307000D01*
X113761904Y-116354619D01*
X113714285Y-116449857D01*
X113714285Y-116545095D01*
X113761904Y-116687952D01*
X114333333Y-117259380D01*
X113714285Y-117259380D01*
X112857142Y-116592714D02*
X112857142Y-117259380D01*
X113095238Y-116211761D02*
X113333333Y-116926047D01*
X112714285Y-116926047D01*
%TO.C,R125*%
X115619047Y-125895380D02*
X115952380Y-125419190D01*
X116190476Y-125895380D02*
X116190476Y-124895380D01*
X115809523Y-124895380D01*
X115714285Y-124943000D01*
X115666666Y-124990619D01*
X115619047Y-125085857D01*
X115619047Y-125228714D01*
X115666666Y-125323952D01*
X115714285Y-125371571D01*
X115809523Y-125419190D01*
X116190476Y-125419190D01*
X114666666Y-125895380D02*
X115238095Y-125895380D01*
X114952380Y-125895380D02*
X114952380Y-124895380D01*
X115047619Y-125038238D01*
X115142857Y-125133476D01*
X115238095Y-125181095D01*
X114285714Y-124990619D02*
X114238095Y-124943000D01*
X114142857Y-124895380D01*
X113904761Y-124895380D01*
X113809523Y-124943000D01*
X113761904Y-124990619D01*
X113714285Y-125085857D01*
X113714285Y-125181095D01*
X113761904Y-125323952D01*
X114333333Y-125895380D01*
X113714285Y-125895380D01*
X112809523Y-124895380D02*
X113285714Y-124895380D01*
X113333333Y-125371571D01*
X113285714Y-125323952D01*
X113190476Y-125276333D01*
X112952380Y-125276333D01*
X112857142Y-125323952D01*
X112809523Y-125371571D01*
X112761904Y-125466809D01*
X112761904Y-125704904D01*
X112809523Y-125800142D01*
X112857142Y-125847761D01*
X112952380Y-125895380D01*
X113190476Y-125895380D01*
X113285714Y-125847761D01*
X113333333Y-125800142D01*
%TO.C,R126*%
X115609047Y-113382380D02*
X115942380Y-112906190D01*
X116180476Y-113382380D02*
X116180476Y-112382380D01*
X115799523Y-112382380D01*
X115704285Y-112430000D01*
X115656666Y-112477619D01*
X115609047Y-112572857D01*
X115609047Y-112715714D01*
X115656666Y-112810952D01*
X115704285Y-112858571D01*
X115799523Y-112906190D01*
X116180476Y-112906190D01*
X114656666Y-113382380D02*
X115228095Y-113382380D01*
X114942380Y-113382380D02*
X114942380Y-112382380D01*
X115037619Y-112525238D01*
X115132857Y-112620476D01*
X115228095Y-112668095D01*
X114275714Y-112477619D02*
X114228095Y-112430000D01*
X114132857Y-112382380D01*
X113894761Y-112382380D01*
X113799523Y-112430000D01*
X113751904Y-112477619D01*
X113704285Y-112572857D01*
X113704285Y-112668095D01*
X113751904Y-112810952D01*
X114323333Y-113382380D01*
X113704285Y-113382380D01*
X112847142Y-112382380D02*
X113037619Y-112382380D01*
X113132857Y-112430000D01*
X113180476Y-112477619D01*
X113275714Y-112620476D01*
X113323333Y-112810952D01*
X113323333Y-113191904D01*
X113275714Y-113287142D01*
X113228095Y-113334761D01*
X113132857Y-113382380D01*
X112942380Y-113382380D01*
X112847142Y-113334761D01*
X112799523Y-113287142D01*
X112751904Y-113191904D01*
X112751904Y-112953809D01*
X112799523Y-112858571D01*
X112847142Y-112810952D01*
X112942380Y-112763333D01*
X113132857Y-112763333D01*
X113228095Y-112810952D01*
X113275714Y-112858571D01*
X113323333Y-112953809D01*
%TO.C,R127*%
X107481047Y-104001380D02*
X107814380Y-103525190D01*
X108052476Y-104001380D02*
X108052476Y-103001380D01*
X107671523Y-103001380D01*
X107576285Y-103049000D01*
X107528666Y-103096619D01*
X107481047Y-103191857D01*
X107481047Y-103334714D01*
X107528666Y-103429952D01*
X107576285Y-103477571D01*
X107671523Y-103525190D01*
X108052476Y-103525190D01*
X106528666Y-104001380D02*
X107100095Y-104001380D01*
X106814380Y-104001380D02*
X106814380Y-103001380D01*
X106909619Y-103144238D01*
X107004857Y-103239476D01*
X107100095Y-103287095D01*
X106147714Y-103096619D02*
X106100095Y-103049000D01*
X106004857Y-103001380D01*
X105766761Y-103001380D01*
X105671523Y-103049000D01*
X105623904Y-103096619D01*
X105576285Y-103191857D01*
X105576285Y-103287095D01*
X105623904Y-103429952D01*
X106195333Y-104001380D01*
X105576285Y-104001380D01*
X105242952Y-103001380D02*
X104576285Y-103001380D01*
X105004857Y-104001380D01*
%TO.C,R128*%
X128119047Y-117386380D02*
X128452380Y-116910190D01*
X128690476Y-117386380D02*
X128690476Y-116386380D01*
X128309523Y-116386380D01*
X128214285Y-116434000D01*
X128166666Y-116481619D01*
X128119047Y-116576857D01*
X128119047Y-116719714D01*
X128166666Y-116814952D01*
X128214285Y-116862571D01*
X128309523Y-116910190D01*
X128690476Y-116910190D01*
X127166666Y-117386380D02*
X127738095Y-117386380D01*
X127452380Y-117386380D02*
X127452380Y-116386380D01*
X127547619Y-116529238D01*
X127642857Y-116624476D01*
X127738095Y-116672095D01*
X126785714Y-116481619D02*
X126738095Y-116434000D01*
X126642857Y-116386380D01*
X126404761Y-116386380D01*
X126309523Y-116434000D01*
X126261904Y-116481619D01*
X126214285Y-116576857D01*
X126214285Y-116672095D01*
X126261904Y-116814952D01*
X126833333Y-117386380D01*
X126214285Y-117386380D01*
X125642857Y-116814952D02*
X125738095Y-116767333D01*
X125785714Y-116719714D01*
X125833333Y-116624476D01*
X125833333Y-116576857D01*
X125785714Y-116481619D01*
X125738095Y-116434000D01*
X125642857Y-116386380D01*
X125452380Y-116386380D01*
X125357142Y-116434000D01*
X125309523Y-116481619D01*
X125261904Y-116576857D01*
X125261904Y-116624476D01*
X125309523Y-116719714D01*
X125357142Y-116767333D01*
X125452380Y-116814952D01*
X125642857Y-116814952D01*
X125738095Y-116862571D01*
X125785714Y-116910190D01*
X125833333Y-117005428D01*
X125833333Y-117195904D01*
X125785714Y-117291142D01*
X125738095Y-117338761D01*
X125642857Y-117386380D01*
X125452380Y-117386380D01*
X125357142Y-117338761D01*
X125309523Y-117291142D01*
X125261904Y-117195904D01*
X125261904Y-117005428D01*
X125309523Y-116910190D01*
X125357142Y-116862571D01*
X125452380Y-116814952D01*
%TO.C,R129*%
X94909047Y-88242380D02*
X95242380Y-87766190D01*
X95480476Y-88242380D02*
X95480476Y-87242380D01*
X95099523Y-87242380D01*
X95004285Y-87290000D01*
X94956666Y-87337619D01*
X94909047Y-87432857D01*
X94909047Y-87575714D01*
X94956666Y-87670952D01*
X95004285Y-87718571D01*
X95099523Y-87766190D01*
X95480476Y-87766190D01*
X93956666Y-88242380D02*
X94528095Y-88242380D01*
X94242380Y-88242380D02*
X94242380Y-87242380D01*
X94337619Y-87385238D01*
X94432857Y-87480476D01*
X94528095Y-87528095D01*
X93575714Y-87337619D02*
X93528095Y-87290000D01*
X93432857Y-87242380D01*
X93194761Y-87242380D01*
X93099523Y-87290000D01*
X93051904Y-87337619D01*
X93004285Y-87432857D01*
X93004285Y-87528095D01*
X93051904Y-87670952D01*
X93623333Y-88242380D01*
X93004285Y-88242380D01*
X92528095Y-88242380D02*
X92337619Y-88242380D01*
X92242380Y-88194761D01*
X92194761Y-88147142D01*
X92099523Y-88004285D01*
X92051904Y-87813809D01*
X92051904Y-87432857D01*
X92099523Y-87337619D01*
X92147142Y-87290000D01*
X92242380Y-87242380D01*
X92432857Y-87242380D01*
X92528095Y-87290000D01*
X92575714Y-87337619D01*
X92623333Y-87432857D01*
X92623333Y-87670952D01*
X92575714Y-87766190D01*
X92528095Y-87813809D01*
X92432857Y-87861428D01*
X92242380Y-87861428D01*
X92147142Y-87813809D01*
X92099523Y-87766190D01*
X92051904Y-87670952D01*
%TO.C,R130*%
X94909047Y-89700380D02*
X95242380Y-89224190D01*
X95480476Y-89700380D02*
X95480476Y-88700380D01*
X95099523Y-88700380D01*
X95004285Y-88748000D01*
X94956666Y-88795619D01*
X94909047Y-88890857D01*
X94909047Y-89033714D01*
X94956666Y-89128952D01*
X95004285Y-89176571D01*
X95099523Y-89224190D01*
X95480476Y-89224190D01*
X93956666Y-89700380D02*
X94528095Y-89700380D01*
X94242380Y-89700380D02*
X94242380Y-88700380D01*
X94337619Y-88843238D01*
X94432857Y-88938476D01*
X94528095Y-88986095D01*
X93623333Y-88700380D02*
X93004285Y-88700380D01*
X93337619Y-89081333D01*
X93194761Y-89081333D01*
X93099523Y-89128952D01*
X93051904Y-89176571D01*
X93004285Y-89271809D01*
X93004285Y-89509904D01*
X93051904Y-89605142D01*
X93099523Y-89652761D01*
X93194761Y-89700380D01*
X93480476Y-89700380D01*
X93575714Y-89652761D01*
X93623333Y-89605142D01*
X92385238Y-88700380D02*
X92290000Y-88700380D01*
X92194761Y-88748000D01*
X92147142Y-88795619D01*
X92099523Y-88890857D01*
X92051904Y-89081333D01*
X92051904Y-89319428D01*
X92099523Y-89509904D01*
X92147142Y-89605142D01*
X92194761Y-89652761D01*
X92290000Y-89700380D01*
X92385238Y-89700380D01*
X92480476Y-89652761D01*
X92528095Y-89605142D01*
X92575714Y-89509904D01*
X92623333Y-89319428D01*
X92623333Y-89081333D01*
X92575714Y-88890857D01*
X92528095Y-88795619D01*
X92480476Y-88748000D01*
X92385238Y-88700380D01*
%TO.C,R131*%
X128109047Y-130882380D02*
X128442380Y-130406190D01*
X128680476Y-130882380D02*
X128680476Y-129882380D01*
X128299523Y-129882380D01*
X128204285Y-129930000D01*
X128156666Y-129977619D01*
X128109047Y-130072857D01*
X128109047Y-130215714D01*
X128156666Y-130310952D01*
X128204285Y-130358571D01*
X128299523Y-130406190D01*
X128680476Y-130406190D01*
X127156666Y-130882380D02*
X127728095Y-130882380D01*
X127442380Y-130882380D02*
X127442380Y-129882380D01*
X127537619Y-130025238D01*
X127632857Y-130120476D01*
X127728095Y-130168095D01*
X126823333Y-129882380D02*
X126204285Y-129882380D01*
X126537619Y-130263333D01*
X126394761Y-130263333D01*
X126299523Y-130310952D01*
X126251904Y-130358571D01*
X126204285Y-130453809D01*
X126204285Y-130691904D01*
X126251904Y-130787142D01*
X126299523Y-130834761D01*
X126394761Y-130882380D01*
X126680476Y-130882380D01*
X126775714Y-130834761D01*
X126823333Y-130787142D01*
X125251904Y-130882380D02*
X125823333Y-130882380D01*
X125537619Y-130882380D02*
X125537619Y-129882380D01*
X125632857Y-130025238D01*
X125728095Y-130120476D01*
X125823333Y-130168095D01*
%TO.C,R132*%
X128119047Y-126403380D02*
X128452380Y-125927190D01*
X128690476Y-126403380D02*
X128690476Y-125403380D01*
X128309523Y-125403380D01*
X128214285Y-125451000D01*
X128166666Y-125498619D01*
X128119047Y-125593857D01*
X128119047Y-125736714D01*
X128166666Y-125831952D01*
X128214285Y-125879571D01*
X128309523Y-125927190D01*
X128690476Y-125927190D01*
X127166666Y-126403380D02*
X127738095Y-126403380D01*
X127452380Y-126403380D02*
X127452380Y-125403380D01*
X127547619Y-125546238D01*
X127642857Y-125641476D01*
X127738095Y-125689095D01*
X126833333Y-125403380D02*
X126214285Y-125403380D01*
X126547619Y-125784333D01*
X126404761Y-125784333D01*
X126309523Y-125831952D01*
X126261904Y-125879571D01*
X126214285Y-125974809D01*
X126214285Y-126212904D01*
X126261904Y-126308142D01*
X126309523Y-126355761D01*
X126404761Y-126403380D01*
X126690476Y-126403380D01*
X126785714Y-126355761D01*
X126833333Y-126308142D01*
X125833333Y-125498619D02*
X125785714Y-125451000D01*
X125690476Y-125403380D01*
X125452380Y-125403380D01*
X125357142Y-125451000D01*
X125309523Y-125498619D01*
X125261904Y-125593857D01*
X125261904Y-125689095D01*
X125309523Y-125831952D01*
X125880952Y-126403380D01*
X125261904Y-126403380D01*
%TO.C,U102*%
X111554285Y-76002380D02*
X111554285Y-76811904D01*
X111506666Y-76907142D01*
X111459047Y-76954761D01*
X111363809Y-77002380D01*
X111173333Y-77002380D01*
X111078095Y-76954761D01*
X111030476Y-76907142D01*
X110982857Y-76811904D01*
X110982857Y-76002380D01*
X109982857Y-77002380D02*
X110554285Y-77002380D01*
X110268571Y-77002380D02*
X110268571Y-76002380D01*
X110363809Y-76145238D01*
X110459047Y-76240476D01*
X110554285Y-76288095D01*
X109363809Y-76002380D02*
X109268571Y-76002380D01*
X109173333Y-76050000D01*
X109125714Y-76097619D01*
X109078095Y-76192857D01*
X109030476Y-76383333D01*
X109030476Y-76621428D01*
X109078095Y-76811904D01*
X109125714Y-76907142D01*
X109173333Y-76954761D01*
X109268571Y-77002380D01*
X109363809Y-77002380D01*
X109459047Y-76954761D01*
X109506666Y-76907142D01*
X109554285Y-76811904D01*
X109601904Y-76621428D01*
X109601904Y-76383333D01*
X109554285Y-76192857D01*
X109506666Y-76097619D01*
X109459047Y-76050000D01*
X109363809Y-76002380D01*
X108649523Y-76097619D02*
X108601904Y-76050000D01*
X108506666Y-76002380D01*
X108268571Y-76002380D01*
X108173333Y-76050000D01*
X108125714Y-76097619D01*
X108078095Y-76192857D01*
X108078095Y-76288095D01*
X108125714Y-76430952D01*
X108697142Y-77002380D01*
X108078095Y-77002380D01*
X113732857Y-56204761D02*
X113828095Y-56252380D01*
X114018571Y-56252380D01*
X114113809Y-56204761D01*
X114161428Y-56109523D01*
X114161428Y-55728571D01*
X114113809Y-55633333D01*
X114018571Y-55585714D01*
X113828095Y-55585714D01*
X113732857Y-55633333D01*
X113685238Y-55728571D01*
X113685238Y-55823809D01*
X114161428Y-55919047D01*
X113304285Y-56204761D02*
X113209047Y-56252380D01*
X113018571Y-56252380D01*
X112923333Y-56204761D01*
X112875714Y-56109523D01*
X112875714Y-56061904D01*
X112923333Y-55966666D01*
X113018571Y-55919047D01*
X113161428Y-55919047D01*
X113256666Y-55871428D01*
X113304285Y-55776190D01*
X113304285Y-55728571D01*
X113256666Y-55633333D01*
X113161428Y-55585714D01*
X113018571Y-55585714D01*
X112923333Y-55633333D01*
X112447142Y-55585714D02*
X112447142Y-56585714D01*
X112447142Y-55633333D02*
X112351904Y-55585714D01*
X112161428Y-55585714D01*
X112066190Y-55633333D01*
X112018571Y-55680952D01*
X111970952Y-55776190D01*
X111970952Y-56061904D01*
X112018571Y-56157142D01*
X112066190Y-56204761D01*
X112161428Y-56252380D01*
X112351904Y-56252380D01*
X112447142Y-56204761D01*
X111637619Y-55252380D02*
X111018571Y-55252380D01*
X111351904Y-55633333D01*
X111209047Y-55633333D01*
X111113809Y-55680952D01*
X111066190Y-55728571D01*
X111018571Y-55823809D01*
X111018571Y-56061904D01*
X111066190Y-56157142D01*
X111113809Y-56204761D01*
X111209047Y-56252380D01*
X111494761Y-56252380D01*
X111590000Y-56204761D01*
X111637619Y-56157142D01*
X110637619Y-55347619D02*
X110590000Y-55300000D01*
X110494761Y-55252380D01*
X110256666Y-55252380D01*
X110161428Y-55300000D01*
X110113809Y-55347619D01*
X110066190Y-55442857D01*
X110066190Y-55538095D01*
X110113809Y-55680952D01*
X110685238Y-56252380D01*
X110066190Y-56252380D01*
X109637619Y-55871428D02*
X108875714Y-55871428D01*
X108447142Y-56204761D02*
X108351904Y-56252380D01*
X108161428Y-56252380D01*
X108066190Y-56204761D01*
X108018571Y-56109523D01*
X108018571Y-56061904D01*
X108066190Y-55966666D01*
X108161428Y-55919047D01*
X108304285Y-55919047D01*
X108399523Y-55871428D01*
X108447142Y-55776190D01*
X108447142Y-55728571D01*
X108399523Y-55633333D01*
X108304285Y-55585714D01*
X108161428Y-55585714D01*
X108066190Y-55633333D01*
X107637619Y-55347619D02*
X107590000Y-55300000D01*
X107494761Y-55252380D01*
X107256666Y-55252380D01*
X107161428Y-55300000D01*
X107113809Y-55347619D01*
X107066190Y-55442857D01*
X107066190Y-55538095D01*
X107113809Y-55680952D01*
X107685238Y-56252380D01*
X107066190Y-56252380D01*
X106637619Y-55871428D02*
X105875714Y-55871428D01*
X105494761Y-55585714D02*
X105304285Y-56252380D01*
X105113809Y-55776190D01*
X104923333Y-56252380D01*
X104732857Y-55585714D01*
X104351904Y-56252380D02*
X104351904Y-55585714D01*
X104351904Y-55776190D02*
X104304285Y-55680952D01*
X104256666Y-55633333D01*
X104161428Y-55585714D01*
X104066190Y-55585714D01*
X103590000Y-56252380D02*
X103685238Y-56204761D01*
X103732857Y-56157142D01*
X103780476Y-56061904D01*
X103780476Y-55776190D01*
X103732857Y-55680952D01*
X103685238Y-55633333D01*
X103590000Y-55585714D01*
X103447142Y-55585714D01*
X103351904Y-55633333D01*
X103304285Y-55680952D01*
X103256666Y-55776190D01*
X103256666Y-56061904D01*
X103304285Y-56157142D01*
X103351904Y-56204761D01*
X103447142Y-56252380D01*
X103590000Y-56252380D01*
X102685238Y-56252380D02*
X102780476Y-56204761D01*
X102828095Y-56157142D01*
X102875714Y-56061904D01*
X102875714Y-55776190D01*
X102828095Y-55680952D01*
X102780476Y-55633333D01*
X102685238Y-55585714D01*
X102542380Y-55585714D01*
X102447142Y-55633333D01*
X102399523Y-55680952D01*
X102351904Y-55776190D01*
X102351904Y-56061904D01*
X102399523Y-56157142D01*
X102447142Y-56204761D01*
X102542380Y-56252380D01*
X102685238Y-56252380D01*
X101923333Y-56252380D02*
X101923333Y-55585714D01*
X101923333Y-55680952D02*
X101875714Y-55633333D01*
X101780476Y-55585714D01*
X101637619Y-55585714D01*
X101542380Y-55633333D01*
X101494761Y-55728571D01*
X101494761Y-56252380D01*
X101494761Y-55728571D02*
X101447142Y-55633333D01*
X101351904Y-55585714D01*
X101209047Y-55585714D01*
X101113809Y-55633333D01*
X101066190Y-55728571D01*
X101066190Y-56252380D01*
X112851904Y-53716666D02*
X112375714Y-53716666D01*
X112947142Y-54002380D02*
X112613809Y-53002380D01*
X112280476Y-54002380D01*
X111947142Y-54002380D02*
X111947142Y-53002380D01*
X111375714Y-54002380D01*
X111375714Y-53002380D01*
X111042380Y-53002380D02*
X110470952Y-53002380D01*
X110756666Y-54002380D02*
X110756666Y-53002380D01*
X110137619Y-53478571D02*
X109804285Y-53478571D01*
X109661428Y-54002380D02*
X110137619Y-54002380D01*
X110137619Y-53002380D01*
X109661428Y-53002380D01*
X109232857Y-54002380D02*
X109232857Y-53002380D01*
X108661428Y-54002380D01*
X108661428Y-53002380D01*
X108185238Y-54002380D02*
X108185238Y-53002380D01*
X107613809Y-54002380D01*
X107613809Y-53002380D01*
X107185238Y-53716666D02*
X106709047Y-53716666D01*
X107280476Y-54002380D02*
X106947142Y-53002380D01*
X106613809Y-54002380D01*
X105566190Y-53716666D02*
X105090000Y-53716666D01*
X105661428Y-54002380D02*
X105328095Y-53002380D01*
X104994761Y-54002380D01*
X104090000Y-54002380D02*
X104423333Y-53526190D01*
X104661428Y-54002380D02*
X104661428Y-53002380D01*
X104280476Y-53002380D01*
X104185238Y-53050000D01*
X104137619Y-53097619D01*
X104090000Y-53192857D01*
X104090000Y-53335714D01*
X104137619Y-53430952D01*
X104185238Y-53478571D01*
X104280476Y-53526190D01*
X104661428Y-53526190D01*
X103661428Y-53478571D02*
X103328095Y-53478571D01*
X103185238Y-54002380D02*
X103661428Y-54002380D01*
X103661428Y-53002380D01*
X103185238Y-53002380D01*
X102804285Y-53716666D02*
X102328095Y-53716666D01*
X102899523Y-54002380D02*
X102566190Y-53002380D01*
X102232857Y-54002380D01*
%TD*%
M02*
