%TF.GenerationSoftware,KiCad,Pcbnew,(5.1.12)-1*%
%TF.CreationDate,2022-08-12T17:27:40+02:00*%
%TF.ProjectId,upitchuS2,75706974-6368-4755-9332-2e6b69636164,1.1*%
%TF.SameCoordinates,Original*%
%TF.FileFunction,Soldermask,Top*%
%TF.FilePolarity,Negative*%
%FSLAX46Y46*%
G04 Gerber Fmt 4.6, Leading zero omitted, Abs format (unit mm)*
G04 Created by KiCad (PCBNEW (5.1.12)-1) date 2022-08-12 17:27:40*
%MOMM*%
%LPD*%
G01*
G04 APERTURE LIST*
%ADD10R,2.750000X1.000000*%
%ADD11R,1.500000X1.000000*%
%ADD12R,3.000000X0.400000*%
%ADD13O,1.600000X1.000000*%
%ADD14O,2.100000X0.900000*%
%ADD15C,0.650000*%
%ADD16R,1.700000X1.700000*%
%ADD17O,1.700000X1.700000*%
%ADD18C,1.524000*%
%ADD19C,0.400000*%
G04 APERTURE END LIST*
D10*
%TO.C,SW105*%
X124175000Y-103900000D03*
X129925000Y-103900000D03*
X129925000Y-99900000D03*
X124175000Y-99900000D03*
%TD*%
%TO.C,D1*%
G36*
G01*
X106987000Y-135256250D02*
X106987000Y-134743750D01*
G75*
G02*
X107205750Y-134525000I218750J0D01*
G01*
X107643250Y-134525000D01*
G75*
G02*
X107862000Y-134743750I0J-218750D01*
G01*
X107862000Y-135256250D01*
G75*
G02*
X107643250Y-135475000I-218750J0D01*
G01*
X107205750Y-135475000D01*
G75*
G02*
X106987000Y-135256250I0J218750D01*
G01*
G37*
G36*
G01*
X108562000Y-135256250D02*
X108562000Y-134743750D01*
G75*
G02*
X108780750Y-134525000I218750J0D01*
G01*
X109218250Y-134525000D01*
G75*
G02*
X109437000Y-134743750I0J-218750D01*
G01*
X109437000Y-135256250D01*
G75*
G02*
X109218250Y-135475000I-218750J0D01*
G01*
X108780750Y-135475000D01*
G75*
G02*
X108562000Y-135256250I0J218750D01*
G01*
G37*
%TD*%
D11*
%TO.C,D101*%
X123950000Y-56100000D03*
X123950000Y-52900000D03*
X119050000Y-56100000D03*
X119050000Y-52900000D03*
%TD*%
%TO.C,D102*%
X92050000Y-52900000D03*
X92050000Y-56100000D03*
X96950000Y-52900000D03*
X96950000Y-56100000D03*
%TD*%
D12*
%TO.C,U4*%
X101000000Y-82600000D03*
X101000000Y-81800000D03*
X101000000Y-81000000D03*
X101000000Y-80200000D03*
X101000000Y-79400000D03*
X101000000Y-78600000D03*
X101000000Y-74600000D03*
X101000000Y-77800000D03*
X101000000Y-73800000D03*
X101000000Y-76200000D03*
X101000000Y-77000000D03*
X101000000Y-75400000D03*
%TD*%
D13*
%TO.C,J101*%
X84330000Y-94820000D03*
X84330000Y-86180000D03*
D14*
X88510000Y-94820000D03*
X88510000Y-86180000D03*
D15*
X88010000Y-93390000D03*
X88010000Y-87610000D03*
%TD*%
D10*
%TO.C,SW101*%
X86075000Y-121800000D03*
X91825000Y-121800000D03*
X91825000Y-117800000D03*
X86075000Y-117800000D03*
%TD*%
%TO.C,SW102*%
X86050000Y-130750000D03*
X91800000Y-130750000D03*
X91800000Y-126750000D03*
X86050000Y-126750000D03*
%TD*%
%TO.C,SW103*%
X86075000Y-108850000D03*
X91825000Y-108850000D03*
X91825000Y-112850000D03*
X86075000Y-112850000D03*
%TD*%
%TO.C,SW104*%
X86075000Y-103900000D03*
X91825000Y-103900000D03*
X91825000Y-99900000D03*
X86075000Y-99900000D03*
%TD*%
%TO.C,SW106*%
X98775000Y-117800000D03*
X104525000Y-117800000D03*
X104525000Y-121800000D03*
X98775000Y-121800000D03*
%TD*%
%TO.C,SW107*%
X98750000Y-126750000D03*
X104500000Y-126750000D03*
X104500000Y-130750000D03*
X98750000Y-130750000D03*
%TD*%
%TO.C,SW108*%
X98775000Y-112850000D03*
X104525000Y-112850000D03*
X104525000Y-108850000D03*
X98775000Y-108850000D03*
%TD*%
%TO.C,SW109*%
X98775000Y-99900000D03*
X104525000Y-99900000D03*
X104525000Y-103900000D03*
X98775000Y-103900000D03*
%TD*%
%TO.C,SW110*%
X124050000Y-108850000D03*
X129800000Y-108850000D03*
X129800000Y-112850000D03*
X124050000Y-112850000D03*
%TD*%
%TO.C,SW111*%
X111675000Y-117800000D03*
X117425000Y-117800000D03*
X117425000Y-121800000D03*
X111675000Y-121800000D03*
%TD*%
%TO.C,SW112*%
X111650000Y-126750000D03*
X117400000Y-126750000D03*
X117400000Y-130750000D03*
X111650000Y-130750000D03*
%TD*%
%TO.C,SW113*%
X111675000Y-108850000D03*
X117425000Y-108850000D03*
X117425000Y-112850000D03*
X111675000Y-112850000D03*
%TD*%
%TO.C,SW114*%
X111475000Y-103900000D03*
X117225000Y-103900000D03*
X117225000Y-99900000D03*
X111475000Y-99900000D03*
%TD*%
%TO.C,SW115*%
X124125000Y-121800000D03*
X129875000Y-121800000D03*
X129875000Y-117800000D03*
X124125000Y-117800000D03*
%TD*%
D16*
%TO.C,J102*%
X111500000Y-95500000D03*
D17*
X114040000Y-95500000D03*
X116580000Y-95500000D03*
X119120000Y-95500000D03*
X121660000Y-95500000D03*
X124200000Y-95500000D03*
X126740000Y-95500000D03*
X129280000Y-95500000D03*
%TD*%
D10*
%TO.C,SW116*%
X124100000Y-126850000D03*
X129850000Y-126850000D03*
X129850000Y-130850000D03*
X124100000Y-130850000D03*
%TD*%
D18*
%TO.C,SW117*%
X87950000Y-64350000D03*
X87950000Y-61850000D03*
X87950000Y-66850000D03*
%TD*%
D19*
%TO.C,U102*%
X108254000Y-67074000D03*
X109778000Y-68598000D03*
X109066800Y-67886800D03*
X108304800Y-68598000D03*
X109778000Y-65600800D03*
X109778000Y-67124800D03*
X110540000Y-67886800D03*
X108254000Y-65600800D03*
X110540000Y-66413600D03*
X109016000Y-66413600D03*
X107542800Y-66413600D03*
X107542800Y-67886800D03*
%TD*%
M02*
