M48
; DRILL file {KiCad (5.1.12)-1} date 08/12/22 17:27:42
; FORMAT={-:-/ absolute / metric / decimal}
; #@! TF.CreationDate,2022-08-12T17:27:42+02:00
; #@! TF.GenerationSoftware,Kicad,Pcbnew,(5.1.12)-1
; #@! TF.FileFunction,Plated,1,2,PTH
FMAT,2
METRIC
T1C0.250
T2C0.300
T3C0.500
T4C0.600
T5C0.762
T6C1.000
%
G90
G05
T2
X88.128Y-112.68
X88.128Y-122.195
X89.249Y-130.354
X89.498Y-79.428
X93.05Y-66.0
X93.8Y-59.4
X93.95Y-112.2
X94.05Y-62.1
X94.4Y-64.05
X96.0Y-67.0
X96.0Y-87.25
X96.6Y-61.7
X96.65Y-80.05
X96.695Y-54.705
X96.7Y-77.85
X96.72Y-85.546
X96.8Y-89.5
X97.254Y-88.319
X97.5Y-81.45
X97.9Y-57.35
X98.345Y-83.627
X99.067Y-110.959
X99.223Y-102.252
X99.4Y-59.1
X101.0Y-78.6
X101.0Y-81.8
X101.2Y-61.05
X101.25Y-92.05
X101.6Y-70.3
X101.65Y-59.2
X101.7Y-87.7
X101.75Y-96.1
X101.871Y-130.928
X102.255Y-122.195
X102.642Y-86.45
X102.989Y-96.878
X103.079Y-74.773
X103.091Y-75.667
X103.212Y-77.856
X103.218Y-83.502
X103.443Y-76.587
X103.7Y-70.45
X103.767Y-95.621
X104.0Y-68.85
X104.471Y-74.971
X104.75Y-67.45
X104.759Y-96.566
X105.25Y-88.65
X105.565Y-95.57
X105.7Y-115.15
X106.1Y-66.2
X107.496Y-97.202
X108.068Y-73.438
X108.186Y-75.65
X108.2Y-59.3
X108.2Y-115.95
X108.221Y-98.181
X108.228Y-102.101
X108.273Y-104.524
X108.768Y-75.078
X108.925Y-70.971
X109.243Y-80.864
X109.75Y-88.95
X109.85Y-124.0
X111.105Y-72.156
X111.24Y-74.457
X111.4Y-85.9
X112.446Y-76.758
X112.5Y-68.4
X112.707Y-80.673
X112.95Y-71.3
X113.221Y-69.807
X113.55Y-86.7
X114.204Y-130.925
X114.216Y-122.195
X114.508Y-113.137
X115.25Y-104.55
X115.3Y-89.45
X115.3Y-119.95
X115.807Y-94.091
X116.15Y-101.8
X117.838Y-63.351
X117.963Y-69.658
X118.1Y-106.3
X118.25Y-120.2
X118.3Y-80.8
X118.68Y-70.463
X119.089Y-67.607
X119.9Y-102.0
X120.083Y-107.569
X120.3Y-121.45
X120.35Y-63.05
X120.65Y-113.1
X121.25Y-83.35
X122.229Y-82.187
X122.244Y-55.848
X122.6Y-66.9
X122.9Y-87.35
X123.5Y-80.2
X123.6Y-70.0
X123.804Y-94.086
X123.95Y-62.2
X124.5Y-73.75
X124.9Y-85.2
X125.008Y-120.191
X125.704Y-66.896
X125.8Y-83.15
X126.335Y-130.928
X127.81Y-112.856
X127.85Y-68.55
X128.75Y-62.9
X129.2Y-68.95
X130.2Y-106.1
X130.25Y-82.0
X130.35Y-101.75
T5
X87.95Y-61.85
X87.95Y-64.35
X87.95Y-66.85
T6
X111.5Y-95.5
X114.04Y-95.5
X116.58Y-95.5
X119.12Y-95.5
X121.66Y-95.5
X124.2Y-95.5
X126.74Y-95.5
X129.28Y-95.5
T1
G00X107.543Y-66.414
M15
G01X107.543Y-66.414
M16
G05
G00X107.543Y-67.887
M15
G01X107.543Y-67.887
M16
G05
G00X108.254Y-65.601
M15
G01X108.254Y-65.601
M16
G05
G00X108.254Y-67.074
M15
G01X108.254Y-67.074
M16
G05
G00X108.305Y-68.598
M15
G01X108.305Y-68.598
M16
G05
G00X109.016Y-66.414
M15
G01X109.016Y-66.414
M16
G05
G00X109.067Y-67.887
M15
G01X109.067Y-67.887
M16
G05
G00X109.778Y-65.601
M15
G01X109.778Y-65.601
M16
G05
G00X109.778Y-67.125
M15
G01X109.778Y-67.125
M16
G05
G00X109.778Y-68.598
M15
G01X109.778Y-68.598
M16
G05
G00X110.54Y-66.414
M15
G01X110.54Y-66.414
M16
G05
G00X110.54Y-67.887
M15
G01X110.54Y-67.887
M16
G05
T3
G00X87.91Y-86.18
M15
G01X89.11Y-86.18
M16
G05
G00X87.91Y-94.82
M15
G01X89.11Y-94.82
M16
G05
T4
G00X84.03Y-86.18
M15
G01X84.63Y-86.18
M16
G05
G00X84.03Y-94.82
M15
G01X84.63Y-94.82
M16
G05
T0
M30
